<?xml version="1.0" encoding="UTF-8" standalone="no"?>
<!-- Created with Inkscape (http://www.inkscape.org/) -->

<svg
   width="74.20298mm"
   height="76.993736mm"
   viewBox="0 0 74.20298 76.993736"
   version="1.1"
   id="svg5"
   inkscape:version="1.1 (c68e22c387, 2021-05-23)"
   sodipodi:docname="YPN.svg"
   xmlns:inkscape="http://www.inkscape.org/namespaces/inkscape"
   xmlns:sodipodi="http://sodipodi.sourceforge.net/DTD/sodipodi-0.dtd"
   xmlns="http://www.w3.org/2000/svg"
   xmlns:svg="http://www.w3.org/2000/svg">
  <sodipodi:namedview
     id="namedview7"
     pagecolor="#ffffff"
     bordercolor="#999999"
     borderopacity="1"
     inkscape:pageshadow="0"
     inkscape:pageopacity="0"
     inkscape:pagecheckerboard="0"
     inkscape:document-units="mm"
     showgrid="false"
     fit-margin-top="0"
     fit-margin-left="0"
     fit-margin-right="0"
     fit-margin-bottom="0"
     inkscape:zoom="0.66772387"
     inkscape:cx="-38.189439"
     inkscape:cy="183.45907"
     inkscape:window-width="1366"
     inkscape:window-height="715"
     inkscape:window-x="-8"
     inkscape:window-y="-8"
     inkscape:window-maximized="1"
     inkscape:current-layer="layer1" />
  <defs
     id="defs2" />
  <g
     inkscape:label="Capa 1"
     inkscape:groupmode="layer"
     id="layer1"
     transform="translate(-145.60838,-137.60891)">
    <path
       style="opacity:1;fill:#ffffff;stroke:none;stroke-width:0.265;stroke-linecap:butt;stroke-linejoin:miter;stroke-miterlimit:4;stroke-dasharray:none;stroke-opacity:1"
       d="m 205.19963,189.86417 c 0,0 1.41931,0.37989 1.51837,0.72661 0.0991,0.34671 1.08968,0.79249 0.94109,1.2878 -0.14859,0.49531 -2.22889,8.17259 -2.22889,8.17259 l -8.56883,1.78311 -6.98385,-2.62514 0.89156,-10.59959 14.43055,1.25462"
       id="path2042" />
    <g
       id="g1891"
       transform="translate(12.465716,-0.48290842)">
      <path
         style="fill:#cbe4fb;stroke-width:0.264583"
         d="m 151.90375,214.32738 c -1.75465,-0.92442 -3.19753,-2.44633 -4.11504,-4.34041 l -0.75011,-1.54852 -0.022,-7.92324 -0.022,-7.92324 0.70966,-1.44931 c 0.39031,-0.79712 0.92553,-1.64467 1.18938,-1.88345 0.45581,-0.41251 0.40009,-0.48763 -1.11771,-1.50681 -2.64444,-1.77569 -3.16695,-2.85518 -2.06198,-4.25993 0.60723,-0.77196 0.59551,-0.86625 -0.39787,-3.19956 -0.37172,-0.87312 -0.6803,-2.06375 -0.68574,-2.64583 -0.0146,-1.55836 -0.25571,-2.21001 -0.89113,-2.4082 -0.80707,-0.25173 -1.68703,-1.19527 -2.15154,-2.30702 -0.52017,-1.24494 -0.57202,-8.98518 -0.0679,-10.13722 0.58558,-1.33822 1.26691,-2.15861 1.9312,-2.32533 0.35614,-0.0894 0.64753,-0.28015 0.64753,-0.42391 0,-0.16349 -0.68986,-0.19728 -1.84197,-0.0902 -2.12801,0.19778 -3.18511,-0.24477 -3.18511,-1.33343 0,-0.67475 1.28934,-1.9861 2.97656,-3.02739 0.54571,-0.33678 0.9904,-0.75145 0.98821,-0.92148 -0.005,-0.35857 -0.58092,-2.03613 -0.83404,-2.42784 -0.0948,-0.14663 -0.26058,-0.74194 -0.3685,-1.32291 -0.10793,-0.58098 -0.36849,-1.32107 -0.57904,-1.64464 -0.21054,-0.32358 -0.5328,-1.09632 -0.71612,-1.71719 -0.27721,-0.93884 -0.26824,-1.31985 0.0532,-2.26339 0.52269,-1.534 1.48172,-2.19211 5.09426,-3.49581 1.67349,-0.60393 3.51896,-1.28206 4.10104,-1.50696 8.8389,-3.41502 9.37737,-3.23942 11.90719,3.88313 1.34072,3.77473 0.92421,3.36744 3.3028,3.22974 2.46512,-0.1427 3.32794,0.0294 3.70798,0.73948 0.23534,0.43975 0.10961,0.70837 -0.78675,1.6808 l -1.06686,1.15741 3.30258,0.18815 c 1.81642,0.10348 6.19225,0.10448 9.72407,0.002 9.03296,-0.26154 10.95383,0.11033 13.44667,2.60317 1.73909,1.73909 2.71832,4.24323 2.96263,7.57618 0.0537,0.73206 0.24355,1.0005 0.9924,1.40297 0.50932,0.27374 1.25934,0.85709 1.6667,1.29633 l 0.74066,0.79862 -0.0468,4.21454 c -0.0416,3.74151 -0.21803,4.92521 -0.57901,3.88382 -0.0631,-0.1819 -0.20721,0.086 -0.32035,0.59532 -0.11314,0.50932 -0.65074,1.46182 -1.19467,2.11666 -1.27767,1.53819 -1.52401,2.28238 -0.82856,2.50311 0.28512,0.0905 0.82588,0.40639 1.20168,0.702 0.95406,0.75046 0.97017,2.51855 0.031,3.40086 -0.57531,0.54047 -0.82162,0.59289 -2.08701,0.44417 -1.3262,-0.15587 -1.46727,-0.11894 -1.86512,0.48826 -0.44205,0.67466 -2.212,1.72202 -2.91005,1.72202 -0.73989,0 -0.74457,0.57305 -0.011,1.33878 0.40395,0.42164 1.00241,1.56284 1.32991,2.53599 0.47696,1.41731 0.74266,1.82954 1.33529,2.07178 0.59489,0.24316 0.66398,0.35118 0.35263,0.55137 -0.53689,0.3452 -11.62689,0.48058 -12.80144,0.15628 l -0.94722,-0.26155 v 0.8891 c 0,0.48901 -0.10906,0.95651 -0.24235,1.03889 -0.1333,0.0824 0.0751,0.49846 0.46302,0.92463 1.24953,1.3726 2.16058,2.59364 2.16058,2.89573 0,0.36327 -1.31556,0.38471 -2.23174,0.0364 -0.44097,-0.16765 -0.67868,-0.16765 -0.67868,0 0,0.14192 0.0298,0.26553 0.0661,0.27468 0.0364,0.009 1.03311,0.10922 2.21495,0.22236 1.53538,0.14698 2.37789,0.36882 2.95126,0.7771 0.67399,0.47992 1.17,0.5714 3.09833,0.5714 2.24155,0 2.3232,-0.0224 3.45065,-0.94625 1.02722,-0.84174 1.12713,-1.01899 0.90443,-1.60473 -0.54992,-1.4464 -0.0487,-3.12814 1.11846,-3.75279 0.80401,-0.43029 3.11124,-0.57737 3.79056,-0.24163 1.23403,0.60988 1.71979,1.31704 1.71979,2.50361 0,2.26585 -1.04387,3.24804 -3.45203,3.24804 h -1.31047 v 1.0465 c 0,0.9107 0.18776,1.23881 1.44691,2.52851 1.64133,1.68115 1.98903,2.59308 1.9912,5.22238 0.002,2.72674 0.23768,2.87793 4.40293,2.82746 l 3.31972,-0.0402 0.90191,0.87417 c 1.13736,1.10237 1.21291,2.29706 0.22699,3.58966 l -0.67492,0.88487 -26.37872,-0.0306 -26.37872,-0.0306 z m -0.33073,-27.37375 c 1.11728,-0.52682 1.29442,-0.97218 0.38667,-0.97218 -0.33303,0 -1.07258,-0.23812 -1.64344,-0.52916 -0.57086,-0.29105 -1.14358,-0.52917 -1.27271,-0.52917 -0.12912,0 -0.56844,-0.35719 -0.97625,-0.79375 -0.9276,-0.993 -1.17588,-0.99374 -1.58553,-0.005 -0.45045,1.08749 -0.2458,1.44284 1.45905,2.53342 0.81382,0.5206 1.55217,1.13546 1.64077,1.36635 0.1409,0.36718 0.21364,0.3557 0.58018,-0.0916 0.23049,-0.28126 0.86556,-0.7219 1.41126,-0.97921 z m 45.35333,-6.14934 c 0.23499,-0.61238 -0.285,-1.01731 -0.68597,-0.53418 -0.33896,0.40842 -0.18542,0.94884 0.26958,0.94884 0.1415,0 0.32888,-0.18659 0.41639,-0.41466 z m -55.66347,25.18452 c -0.25654,-0.14356 -0.70572,-0.28992 -0.99819,-0.32523 -0.80168,-0.0968 -2.85992,-0.73367 -3.3099,-1.02416 -0.21828,-0.14092 -0.60523,-0.22194 -0.85989,-0.18004 -0.25466,0.0419 -0.46302,-0.0504 -0.46302,-0.20504 0,-0.15467 -0.15713,-0.28122 -0.34916,-0.28122 -0.86959,0 -2.10329,-2.18084 -2.13883,-3.78085 -0.0406,-1.82597 0.9255,-3.41412 2.61423,-4.29763 1.67127,-0.87438 3.05182,-0.80666 4.61266,0.22625 1.06176,0.70264 2.40485,3.0885 2.40485,4.27197 0,0.35124 0.1059,0.70407 0.23535,0.78407 0.12944,0.08 0.29943,0.53351 0.37775,1.0078 0.0783,0.47429 0.25923,1.39646 0.402,2.04927 0.34158,1.56179 0.0554,2.07584 -1.13675,2.04205 -0.50857,-0.0144 -1.13457,-0.14368 -1.3911,-0.28724 z"
         id="path1919" />
      <path
         style="fill:#cbd9f5;stroke-width:0.264583"
         d="m 152.14876,214.33092 c -1.44656,-0.75482 -3.22048,-2.40955 -3.90273,-3.64052 -1.11493,-2.01167 -1.23707,-3.03822 -1.23707,-10.39743 0,-7.8239 0.11157,-8.53998 1.62455,-10.42645 0.4454,-0.55535 0.7681,-1.04293 0.71711,-1.08352 -0.051,-0.0406 -0.82989,-0.56819 -1.7309,-1.17246 -2.52999,-1.69674 -3.00408,-2.72173 -1.90511,-4.11885 0.63353,-0.8054 0.59344,-1.15756 -0.3943,-3.46336 -0.37402,-0.87313 -0.68287,-2.10134 -0.68632,-2.72937 -0.007,-1.21041 -0.37258,-2.16542 -0.82969,-2.16542 -0.35217,0 -1.6415,-1.28423 -2.04355,-2.03546 -0.20137,-0.37627 -0.30804,-2.21288 -0.30804,-5.30368 v -4.7281 l 0.78302,-1.23469 c 0.47825,-0.75413 1.04464,-1.30035 1.45521,-1.4034 0.3697,-0.0928 0.67219,-0.27983 0.67219,-0.41564 0,-0.1468 -0.80139,-0.17431 -1.97625,-0.0679 -2.26922,0.20563 -3.31542,-0.21184 -3.31542,-1.32295 0,-0.67475 1.28934,-1.9861 2.97656,-3.02739 0.54571,-0.33678 0.99219,-0.73596 0.99219,-0.88705 0,-0.48438 -1.39771,-4.5324 -2.03221,-5.88564 -0.7041,-1.50169 -0.77482,-2.68809 -0.23697,-3.97536 0.36068,-0.86322 1.77907,-1.9874 2.93064,-2.32274 0.46309,-0.13486 4.35696,-1.55573 10.29144,-3.75536 1.00363,-0.372 2.36349,-0.67636 3.02192,-0.67636 1.06492,0 1.31632,0.12496 2.27626,1.1314 0.6991,0.73296 1.20914,1.59485 1.44832,2.4474 0.20305,0.72379 0.45044,1.43505 0.54975,1.58057 0.0993,0.14553 0.38934,0.8599 0.64451,1.58751 1.04602,2.98267 0.66897,2.68995 3.30263,2.56403 2.60187,-0.1244 3.46829,0.14978 3.46829,1.09754 0,0.34105 -0.40711,0.99397 -0.9428,1.51204 l -0.94281,0.9118 0.74437,0.16713 c 0.4094,0.0919 5.11083,0.18123 10.44762,0.19844 9.68431,0.0312 11.99812,0.21055 12.93945,1.00271 0.22974,0.19333 0.53586,0.35151 0.68027,0.35151 0.48387,0 2.70241,2.33162 3.26174,3.428 0.30425,0.59638 0.75587,2.39077 1.0036,3.98754 0.37389,2.40991 0.52866,2.90321 0.91089,2.90321 0.25326,0 0.64735,0.28522 0.87577,0.63383 0.22841,0.3486 0.6636,0.69875 0.96709,0.77811 0.43281,0.11319 0.51342,0.27604 0.37384,0.75524 -0.30827,1.05837 -0.24805,6.0027 0.0779,6.39544 0.22968,0.27676 0.20619,0.44191 -0.0989,0.69509 -0.22007,0.18265 -0.40013,0.64922 -0.40013,1.03682 0,0.51538 -0.2974,0.9333 -1.10686,1.55543 -0.98424,0.75646 -1.11237,0.98176 -1.15671,2.03393 -0.0393,0.93164 0.0508,1.21518 0.42358,1.33349 0.26039,0.0827 0.78091,0.39212 1.15671,0.68773 0.95406,0.75046 0.97017,2.51855 0.031,3.40086 -0.57347,0.53875 -0.82352,0.59267 -2.06932,0.44625 -1.34562,-0.15815 -1.44594,-0.12743 -1.99084,0.60958 -0.384,0.51939 -1.05607,0.92814 -2.03172,1.23569 -0.80185,0.25276 -1.45792,0.5516 -1.45792,0.66408 0,0.11249 0.29693,0.64206 0.65984,1.17684 0.36291,0.53478 0.91955,1.68462 1.23699,2.55522 0.46279,1.26924 0.72922,1.6359 1.34458,1.85042 0.56852,0.19819 0.69031,0.34473 0.46989,0.56539 -0.30159,0.3019 -11.83338,0.44615 -13.2363,0.16556 -0.58359,-0.11672 -0.67107,-0.033 -0.74314,0.71124 -0.0613,0.63283 -0.22651,0.86551 -0.66146,0.93152 -0.53691,0.0815 -0.52185,0.11693 0.20371,0.47939 1.32703,0.66293 3.35025,3.6901 2.35845,3.52873 -0.12733,-0.0207 -0.73753,-0.12048 -1.35599,-0.2217 -0.68375,-0.11189 -1.12448,-0.0823 -1.12448,0.0755 0,0.39981 0.75603,0.6062 2.77812,0.75842 1.20772,0.0909 2.1015,0.31439 2.56898,0.64232 0.58034,0.40712 1.18775,0.50291 3.18902,0.50291 2.35512,0 2.52561,-0.0393 3.60195,-0.83088 0.99511,-0.73181 1.10509,-0.91321 0.9224,-1.52136 -0.11409,-0.37976 -0.20576,-1.15239 -0.20371,-1.71695 0.003,-0.81909 0.17544,-1.17993 0.85369,-1.78594 0.73262,-0.65459 1.0658,-0.75946 2.413,-0.75946 1.29103,0 1.70313,0.11789 2.36808,0.67741 2.32636,1.9575 0.5373,5.39885 -2.64875,5.09501 -0.8201,-0.0782 -1.02147,-5.3e-4 -1.13978,0.43973 -0.3613,1.34449 -0.14974,1.85282 1.3004,3.12459 1.67061,1.46513 2.25285,2.91739 2.25285,5.61924 0,2.39544 0.19055,2.50652 4.29969,2.50652 h 3.33199 l 0.94666,1.10596 c 1.15793,1.35278 1.18194,1.92762 0.13365,3.19939 l -0.81302,0.98632 -26.10834,-0.0271 -26.10834,-0.0271 z m -1.17105,-26.86442 c 0.38486,-0.17735 1.07721,-0.58003 1.81418,-1.05517 0.5046,-0.32532 -0.0998,-0.68505 -1.16,-0.69041 -0.44056,-0.002 -1.06581,-0.18951 -1.38943,-0.41619 -0.32363,-0.22668 -0.8112,-0.45504 -1.0835,-0.50748 -0.27229,-0.0524 -0.80249,-0.40276 -1.17822,-0.77849 -0.87526,-0.87526 -1.09914,-0.85945 -1.49898,0.10586 -0.45045,1.08749 -0.2458,1.44284 1.45905,2.53342 0.81382,0.5206 1.54711,1.12226 1.62952,1.33703 0.12843,0.33468 0.21133,0.33789 0.58017,0.0224 0.23669,-0.20246 0.60893,-0.45039 0.82721,-0.55098 z m 45.94864,-6.66221 c 0.23499,-0.61238 -0.285,-1.01731 -0.68597,-0.53418 -0.33896,0.40842 -0.18542,0.94884 0.26958,0.94884 0.1415,0 0.32888,-0.18659 0.41639,-0.41466 z m -38.27572,-5.93534 c -0.31086,-0.43656 -0.62474,-0.79375 -0.6975,-0.79375 -0.0728,0 0.12205,0.35719 0.43291,0.79375 0.31086,0.43657 0.62473,0.79375 0.69749,0.79375 0.0728,0 -0.12205,-0.35718 -0.4329,-0.79375 z m 2.24895,-3.175 c 0.87313,-1.44711 1.6768,-2.63442 1.78594,-2.63847 0.10914,-0.004 0.19844,-0.61444 0.19844,-1.35641 0,-1.168 0.11029,-1.45208 0.82173,-2.11667 0.45195,-0.42219 1.04726,-0.76761 1.32292,-0.76761 0.27565,0 0.50118,-0.11484 0.50118,-0.2552 0,-0.14036 0.54383,-1.15096 1.20851,-2.24577 1.3772,-2.26844 1.48624,-3.30822 0.37899,-3.61376 -1.11171,-0.30677 -2.83023,-0.25412 -3.11572,0.0955 -0.14856,0.1819 -0.94282,2.23573 -1.76504,4.56406 -0.82222,2.32833 -1.96541,5.55717 -2.54042,7.1752 -0.57502,1.61803 -1.04548,3.13608 -1.04548,3.37344 0,1.0019 0.75985,0.25377 2.24895,-2.21427 z m -4.18488,-0.84336 c -0.0845,-0.21106 -0.14716,-0.14837 -0.15985,0.15986 -0.0115,0.27891 0.051,0.43518 0.13896,0.34726 0.0879,-0.0879 0.0973,-0.31612 0.0209,-0.50712 z m 17.39582,-1.29809 c 0.31027,-2.74244 -0.37365,-6.57604 -0.78346,-4.39155 -0.22008,1.1731 0.098,6.00384 0.39533,6.00384 0.11315,0 0.2878,-0.72553 0.38813,-1.61229 z m -31.73177,36.60443 c -0.43656,-0.0627 -0.93686,-0.23233 -1.11178,-0.377 -0.17492,-0.14467 -0.54506,-0.19097 -0.82254,-0.1029 -0.28867,0.0916 -0.63734,8e-5 -0.81497,-0.21396 -0.17076,-0.20575 -0.83964,-0.45344 -1.4864,-0.55043 -0.64676,-0.097 -1.25028,-0.29664 -1.34115,-0.44368 -0.0909,-0.14703 -0.33628,-0.20169 -0.54535,-0.12146 -0.20907,0.0802 -0.44789,-0.0307 -0.53071,-0.24655 -0.0828,-0.21583 -0.30801,-0.39241 -0.50041,-0.39241 -0.1924,0 -0.71545,-0.54175 -1.16232,-1.20389 -0.99752,-1.47805 -1.08646,-3.05474 -0.25575,-4.53375 1.85051,-3.29468 6.45637,-3.25546 8.03365,0.0684 1.26178,2.65901 2.31374,8.05262 1.59606,8.18337 -0.14552,0.0265 -0.62177,-0.003 -1.05833,-0.0658 z"
         id="path1917" />
      <path
         style="fill:#b7dcfc;stroke-width:0.264583"
         d="m 152.43292,214.26418 c -2.80753,-1.41535 -4.26541,-3.19064 -4.98852,-6.07463 -0.34143,-1.36174 -0.43343,-3.01834 -0.42615,-7.67292 0.0107,-6.85338 0.28646,-8.6815 1.58783,-10.52777 0.79076,-1.12187 0.81875,-1.23135 0.37957,-1.48481 -1.28291,-0.7404 -3.19369,-2.50154 -3.4237,-3.15557 -0.20819,-0.59199 -0.1437,-0.93469 0.3312,-1.75984 l 0.58974,-1.02469 -0.64595,-1.4606 c -0.35527,-0.80332 -0.72403,-2.02868 -0.81947,-2.72302 -0.2597,-1.88937 -0.64434,-3.24679 -0.92,-3.24679 -0.32803,0 -1.71782,-1.37342 -2.08606,-2.06149 -0.18509,-0.34584 -0.29412,-2.34776 -0.29412,-5.40032 0,-4.75244 0.0136,-4.87072 0.66883,-5.83504 0.36786,-0.54135 0.96913,-1.05964 1.33615,-1.15176 0.42838,-0.10752 0.63741,-0.32182 0.58378,-0.5985 -0.0707,-0.36467 -0.40927,-0.41712 -2.19935,-0.34075 -1.86811,0.0797 -2.17371,0.0263 -2.6104,-0.45624 -0.46955,-0.51885 -0.47174,-0.58138 -0.0432,-1.23541 0.24826,-0.3789 1.21646,-1.24376 2.15154,-1.92191 0.93508,-0.67815 1.70015,-1.37983 1.70015,-1.55929 0,-0.17946 -0.29765,-0.99934 -0.66146,-1.82196 -0.3638,-0.82262 -0.66145,-1.63893 -0.66145,-1.81401 0,-0.17509 -0.3101,-1.08148 -0.6891,-2.01421 -0.52169,-1.28389 -0.65947,-2.00408 -0.56717,-2.96466 0.20627,-2.14672 0.54753,-2.35443 8.79689,-5.35444 1.45521,-0.52921 3.57874,-1.31083 4.71896,-1.73694 2.34713,-0.87714 2.82001,-0.92694 3.82699,-0.403 1.53047,0.7963 1.92508,1.52939 4.03689,7.49961 0.32172,0.90951 0.71781,1.66151 0.88022,1.67113 0.1624,0.01 1.32174,0.003 2.5763,-0.0152 1.7863,-0.0256 2.3745,0.0608 2.71198,0.3983 0.23703,0.23702 0.42667,0.51174 0.42144,0.61049 -0.0178,0.33619 -1.1847,1.61563 -2.06753,2.26696 l -0.88026,0.64944 11.38354,0.018 c 10.87112,0.0172 11.45,0.0428 12.85986,0.57035 2.27896,0.85267 4.29605,2.70411 5.02579,4.61308 0.47639,1.2462 1.19841,5.19154 1.00915,5.51425 -0.0721,0.12285 -4.1354,0.18708 -9.02967,0.14273 -10.32498,-0.0936 -10.143,-0.12922 -11.13713,2.1817 -0.52098,1.21105 -0.58258,1.73086 -0.49538,4.18012 0.12985,3.64718 0.57152,4.55667 3.41414,7.03041 3.41056,2.96799 3.22807,2.91053 9.24158,2.90976 5.1373,-5.3e-4 5.1649,-0.004 6.44947,-0.7276 1.50968,-0.85068 1.74395,-0.88964 1.58676,-0.26393 -0.0852,0.3392 0.16798,0.58113 0.94674,0.90466 1.85822,0.77197 2.08865,2.5495 0.48524,3.7432 -0.6501,0.48399 -0.8244,0.50293 -1.83674,0.19963 -1.01024,-0.30268 -1.1508,-0.28779 -1.4524,0.15375 -0.67983,0.9953 -1.21075,1.36096 -2.61937,1.80402 -0.79366,0.24964 -1.44303,0.56982 -1.44303,0.7115 0,0.14169 0.29375,0.64274 0.65278,1.11345 0.50207,0.65824 1.99276,3.60881 1.99312,3.94504 3e-5,0.0322 -1.47892,0.0169 -3.28657,-0.0342 -3.59608,-0.10152 -8.50098,0.32629 -9.05998,0.79022 -0.19443,0.16137 -0.35352,0.636 -0.35352,1.05475 0,0.66777 -0.0965,0.76135 -0.78544,0.76135 -1.02485,0 -0.8154,0.69066 0.28258,0.93182 0.42672,0.0937 0.98232,0.46562 1.23467,0.82644 0.25235,0.36082 0.74152,1.01082 1.08705,1.44444 0.34553,0.43362 0.55372,0.86292 0.46264,0.954 -0.0911,0.0911 -0.73098,0.0349 -1.42199,-0.12477 -0.77448,-0.179 -1.35279,-0.19606 -1.50773,-0.0445 -0.49714,0.48633 0.30548,0.78545 2.51809,0.93842 1.68538,0.11652 2.42535,0.29304 3.02493,0.72161 0.9716,0.69447 4.66572,0.94735 5.57252,0.38145 2.52228,-1.57402 2.48286,-1.53445 2.21922,-2.22788 -0.37828,-0.99495 -0.30226,-2.41869 0.16743,-3.13552 0.91733,-1.40003 3.82809,-1.52333 5.18869,-0.21979 0.59418,0.56926 0.74276,0.9451 0.74276,1.87887 0,0.96463 -0.14265,1.30051 -0.82173,1.93487 -0.69229,0.6467 -1.04209,0.76761 -2.22065,0.76761 -1.56436,0 -1.72012,0.16883 -1.72012,1.86442 0,0.77535 0.13734,1.10088 0.55984,1.327 0.73044,0.39092 2.13248,1.96949 2.53708,2.85654 0.17534,0.38441 0.32417,1.66273 0.33073,2.84072 0.0162,2.91231 0.0562,2.94114 4.24527,3.06276 3.74152,0.10862 4.52262,0.41067 5.02888,1.94466 0.23508,0.71227 0.21182,1.04539 -0.11741,1.68206 -0.89615,1.73298 0.99448,1.62083 -27.1292,1.60919 l -25.53956,-0.0106 z m -1.61102,-26.56294 c 0.47697,-0.3638 1.00899,-0.66145 1.18228,-0.66145 0.43014,0 1.61936,-0.79956 1.61936,-1.08877 0,-0.12878 -0.44648,-0.23676 -0.99219,-0.23996 -0.5457,-0.003 -1.52796,-0.26039 -2.18281,-0.57153 -0.65484,-0.31115 -1.27586,-0.54802 -1.38004,-0.52637 -0.10418,0.0216 -0.49392,-0.26513 -0.86608,-0.6373 -0.37216,-0.37216 -0.87978,-0.63754 -1.12803,-0.58973 -0.61247,0.11795 -1.05909,1.42548 -0.68793,2.01397 0.23541,0.37326 3.21421,2.89159 3.48442,2.94579 0.0461,0.009 0.47405,-0.28084 0.95102,-0.64465 z m 46.14556,-7.0776 c -0.0465,-0.32742 -0.26314,-0.59531 -0.48142,-0.59531 -0.21828,0 -0.43492,0.26789 -0.48142,0.59531 -0.0651,0.45818 0.0458,0.59531 0.48142,0.59531 0.43559,0 0.54649,-0.13713 0.48142,-0.59531 z m -32.69444,-2.22575 c -0.1819,-0.0734 -0.47956,-0.0734 -0.66146,0 -0.1819,0.0734 -0.0331,0.13345 0.33073,0.13345 0.3638,0 0.51263,-0.06 0.33073,-0.13345 z m -3.50573,-1.24758 c 0,-0.0549 -0.20836,-0.2633 -0.46302,-0.46302 -0.41964,-0.32911 -0.429,-0.31975 -0.0999,0.0999 0.34564,0.44073 0.56291,0.58089 0.56291,0.36313 z m -1.48864,-1.28917 c -0.10833,-0.1819 -0.59257,-0.91104 -1.0761,-1.62031 -0.76266,-1.11873 -1.09861,-1.97611 -1.77547,-4.53125 -0.0771,-0.29104 -0.079,0.007 -0.004,0.66146 0.16284,1.42632 1.11493,3.5971 2.14247,4.88491 0.75096,0.94116 1.0793,1.21973 0.71333,0.60519 z m 1.62093,-4.16719 c 0.87313,-1.44711 1.6768,-2.63442 1.78594,-2.63847 0.10914,-0.004 0.19844,-0.61444 0.19844,-1.35641 0,-1.168 0.11029,-1.45208 0.82173,-2.11667 0.45195,-0.42219 1.04726,-0.76761 1.32292,-0.76761 0.27565,0 0.50118,-0.11484 0.50118,-0.2552 0,-0.14036 0.54383,-1.15096 1.20851,-2.24577 1.3772,-2.26844 1.48624,-3.30822 0.37899,-3.61376 -1.11171,-0.30677 -2.83023,-0.25412 -3.11572,0.0955 -0.14856,0.1819 -0.94282,2.23573 -1.76504,4.56406 -0.82222,2.32833 -1.96541,5.55717 -2.54042,7.1752 -0.57502,1.61803 -1.04548,3.13608 -1.04548,3.37344 0,1.0019 0.75985,0.25377 2.24895,-2.21427 z m 14.13831,0.52917 c 0.003,-0.21828 -0.23023,0.12214 -0.51808,0.7565 -0.28784,0.63435 -0.51836,1.22967 -0.51226,1.32291 0.0219,0.33398 1.02517,-1.69092 1.03034,-2.07941 z m 0.19764,-1.10794 c -0.0845,-0.21107 -0.14715,-0.14838 -0.15985,0.15985 -0.0115,0.27891 0.051,0.43518 0.13896,0.34727 0.0879,-0.0879 0.0973,-0.31613 0.0209,-0.50712 z m -1.11953,-1.86862 c 0.0906,-1.05503 0.0535,-2.57308 -0.0823,-3.37344 -0.13583,-0.80036 -0.18138,-1.5629 -0.10123,-1.69453 0.0802,-0.13162 0.0129,-0.15721 -0.14949,-0.0569 -0.16237,0.10035 -0.37326,0.59845 -0.46864,1.1069 -0.21535,1.14792 0.12313,5.93616 0.41963,5.93616 0.11953,0 0.29143,-0.86321 0.38201,-1.91823 z m 0.32578,0.5457 c -0.0845,-0.21107 -0.14715,-0.14837 -0.15985,0.15985 -0.0115,0.27892 0.051,0.43519 0.13896,0.34727 0.0879,-0.0879 0.0973,-0.31612 0.0209,-0.50712 z m -17.98905,-3.84796 c -0.0671,-0.25743 -0.12638,-0.11087 -0.13177,0.32569 -0.005,0.43657 0.0495,0.64719 0.12197,0.46806 0.0725,-0.17913 0.0769,-0.53632 0.01,-0.79375 z m 0.26197,-1.17912 c -0.0845,-0.21107 -0.14716,-0.14838 -0.15985,0.15985 -0.0115,0.27891 0.051,0.43518 0.13896,0.34727 0.0879,-0.0879 0.0973,-0.31613 0.0209,-0.50712 z m 18.52083,0 c -0.0845,-0.21107 -0.14715,-0.14838 -0.15985,0.15985 -0.0115,0.27891 0.051,0.43518 0.13896,0.34727 0.0879,-0.0879 0.0973,-0.31613 0.0209,-0.50712 z m -17.11407,-2.86081 c 0.15576,-0.29104 0.22367,-0.52917 0.15091,-0.52917 -0.0728,0 -0.25973,0.23813 -0.41549,0.52917 -0.15576,0.29104 -0.22368,0.52917 -0.15091,0.52917 0.0728,0 0.25973,-0.23813 0.41549,-0.52917 z m -16.66875,43.8456 c -0.80036,-0.1516 -1.51474,-0.35545 -1.5875,-0.45299 -0.0728,-0.0975 -1.00252,-0.40055 -2.06613,-0.67336 -4.39182,-1.12648 -5.9077,-5.01558 -2.99883,-7.69368 1.87704,-1.72813 4.29222,-1.66706 6.11388,0.1546 0.76524,0.76524 1.09259,1.42734 1.58168,3.19916 0.3392,1.22882 0.78962,2.79019 1.00093,3.46971 0.43988,1.41452 0.37296,2.18161 -0.19499,2.23511 -0.21661,0.0204 -1.04868,-0.0869 -1.84904,-0.23855 z m 40.48125,-14.1652 c -0.50932,-0.10053 -0.79584,-0.26682 -0.63669,-0.36955 0.5117,-0.33029 7.31788,-0.76947 9.36794,-0.60448 2.75091,0.2214 3.31939,0.35924 2.96071,0.71792 -0.33395,0.33395 -10.20237,0.55012 -11.69196,0.25611 z m 1.5875,-17.24498 c -1.15892,-1.15893 -0.42843,-2.39234 1.52822,-2.58035 2.83036,-0.27196 4.42151,0.63352 3.74033,2.12855 -0.366,0.80326 -0.90056,0.97258 -3.08574,0.97735 -1.30404,0.003 -1.76552,-0.10826 -2.18281,-0.52555 z m 8.20208,0 c -0.62314,-0.62314 -0.67408,-1.28843 -0.15315,-1.99995 0.54003,-0.7376 3.47681,-0.73046 4.01808,0.01 0.95093,1.30047 -0.0229,2.51935 -2.01285,2.51935 -0.97014,0 -1.46402,-0.14111 -1.85208,-0.52916 z"
         id="path1915" />
      <path
         style="fill:#aac0f0;stroke-width:0.264583"
         d="m 152.43292,214.27765 c -1.5939,-0.79001 -3.71654,-2.76898 -4.25991,-3.97159 -0.91929,-2.03456 -0.99528,-2.6341 -1.10013,-8.67961 -0.068,-3.92235 0.003,-6.81468 0.19354,-7.91041 0.33703,-1.93534 1.11504,-3.68496 1.9224,-4.3232 0.52434,-0.4145 0.50074,-0.44961 -0.94913,-1.41197 -1.73797,-1.15361 -2.81823,-2.34684 -2.81823,-3.11297 0,-0.29908 0.24296,-0.93689 0.5399,-1.41736 l 0.53991,-0.87359 -0.67212,-1.59688 c -0.36966,-0.87828 -0.78051,-2.36228 -0.91299,-3.29778 -0.27401,-1.93485 -0.61383,-2.71178 -1.28036,-2.92731 -0.25481,-0.0824 -0.76096,-0.58753 -1.12476,-1.12251 -0.63584,-0.93504 -0.6647,-1.15787 -0.74528,-5.75509 l -0.0838,-4.78239 0.74528,-1.13586 c 0.40991,-0.62473 1.01914,-1.20468 1.35384,-1.28878 0.37866,-0.0951 0.57699,-0.31573 0.525,-0.58392 -0.0707,-0.36467 -0.40927,-0.41712 -2.19935,-0.34075 -1.86811,0.0797 -2.17371,0.0263 -2.6104,-0.45624 -0.46955,-0.51885 -0.47174,-0.58138 -0.0432,-1.23541 0.24826,-0.3789 1.21646,-1.24376 2.15154,-1.92191 0.93508,-0.67815 1.70015,-1.37983 1.70015,-1.55929 0,-0.17946 -0.29765,-0.99934 -0.66146,-1.82196 -0.3638,-0.82262 -0.66145,-1.63893 -0.66145,-1.81401 0,-0.17509 -0.3101,-1.08148 -0.6891,-2.01421 -0.52169,-1.28389 -0.65947,-2.00408 -0.56717,-2.96466 0.20627,-2.14672 0.54753,-2.35443 8.79689,-5.35444 1.45521,-0.52921 3.57874,-1.31083 4.71896,-1.73694 2.34713,-0.87714 2.82001,-0.92694 3.82699,-0.403 1.53047,0.7963 1.92508,1.52939 4.03689,7.49961 0.32172,0.90951 0.71781,1.66151 0.88022,1.67113 0.1624,0.01 1.32174,0.003 2.5763,-0.0152 1.7863,-0.0256 2.3745,0.0608 2.71198,0.3983 0.23703,0.23702 0.42667,0.51174 0.42144,0.61049 -0.0178,0.33508 -1.18343,1.61469 -2.06011,2.26149 l -0.87284,0.64396 11.25511,0.0379 c 7.15668,0.0241 11.57031,0.14073 12.12071,0.32034 2.80561,0.91551 4.79356,2.59783 5.7748,4.88699 0.5867,1.36871 1.16936,4.68182 0.9321,5.30011 -0.13841,0.3607 -1.26851,0.40145 -9.48151,0.34188 -5.12841,-0.0372 -9.92646,0.0239 -10.66235,0.13575 l -1.33798,0.20337 0.46945,1.35825 c 0.6934,2.00627 0.64929,6.17849 -0.0857,8.10514 -0.30533,0.80036 -0.561,1.82773 -0.56816,2.28303 -0.0172,1.0948 1.36004,2.82726 2.6616,3.34804 1.67231,0.66913 6.74316,1.1208 11.57585,1.03108 4.37717,-0.0812 4.53847,-0.10432 6.00843,-0.85928 1.77389,-0.91105 1.78159,-0.91253 1.63092,-0.31277 -0.0852,0.3392 0.16798,0.58113 0.94674,0.90466 1.85822,0.77197 2.08865,2.5495 0.48524,3.7432 -0.64701,0.48169 -0.82743,0.50203 -1.81877,0.20501 -1.09032,-0.32666 -1.10751,-0.32123 -1.85591,0.58671 -0.41547,0.50404 -1.07871,0.99758 -1.47387,1.09676 -0.39517,0.0992 -1.12364,0.34961 -1.61883,0.55652 l -0.90036,0.37619 0.69706,0.82841 c 0.38339,0.45562 0.87125,1.23075 1.08414,1.7225 0.2129,0.49176 0.55488,1.28106 0.75997,1.754 l 0.37288,0.8599 -3.22086,-0.0916 c -3.67828,-0.10464 -8.49336,0.30417 -9.053,0.76863 -0.20799,0.17261 -0.37816,0.65645 -0.37816,1.0752 0,0.66777 -0.0965,0.76135 -0.78544,0.76135 -1.03793,0 -0.82188,0.5846 0.37615,1.01782 0.60507,0.21879 1.17056,0.75276 1.74464,1.64739 0.46717,0.72801 0.77882,1.39423 0.69257,1.48049 -0.0863,0.0863 -0.66644,0.0275 -1.2893,-0.13063 -0.71998,-0.18275 -1.22459,-0.19535 -1.38534,-0.0346 -0.50491,0.5049 0.34639,0.82947 2.535,0.96648 1.74328,0.10915 2.41226,0.27268 3.15303,0.77079 0.79935,0.5375 1.26222,0.63225 3.08855,0.63225 1.86689,0 2.24626,-0.0815 2.8962,-0.62215 0.41134,-0.34218 1.01202,-0.76107 1.33483,-0.93086 0.4961,-0.26094 0.54728,-0.41301 0.33073,-0.98258 -1.01482,-2.66917 0.65876,-4.63556 3.5733,-4.1985 2.43776,0.36557 3.41596,3.03946 1.69877,4.64356 -0.6958,0.64997 -1.03969,0.76761 -2.24392,0.76761 -1.33583,0 -1.43202,0.0442 -1.58411,0.72761 -0.0891,0.40018 -0.21648,0.92987 -0.28316,1.17709 -0.068,0.25209 0.14615,0.69426 0.48762,1.00684 2.86278,2.62071 3.12238,3.12245 3.12238,6.03479 0,2.8456 0.0527,2.88305 4.23334,3.00771 3.67066,0.10946 4.23055,0.30959 4.91779,1.75785 0.50166,1.05717 0.18221,2.12381 -0.88825,2.96583 -0.64737,0.50923 -1.2005,0.51998 -26.22408,0.50963 l -25.56275,-0.0106 z m -1.98438,-26.31182 c 0.18116,-0.21828 0.49339,-0.39688 0.69386,-0.39688 0.20046,0 0.36448,-0.11906 0.36448,-0.26458 0,-0.14552 0.18278,-0.26458 0.40618,-0.26458 0.50142,0 1.71048,-0.7696 1.71048,-1.08877 0,-0.12878 -0.45607,-0.23415 -1.01349,-0.23415 -0.55742,0 -1.59338,-0.29357 -2.30212,-0.65239 -0.70875,-0.35881 -1.33146,-0.60957 -1.3838,-0.55723 -0.0523,0.0523 -0.38838,-0.19806 -0.74676,-0.55644 -0.35839,-0.35839 -0.85473,-0.61249 -1.10298,-0.56468 -0.61247,0.11795 -1.05909,1.42548 -0.68793,2.01397 0.28848,0.4574 3.26427,2.91518 3.56666,2.94579 0.0913,0.009 0.31427,-0.16178 0.49542,-0.38006 z m 46.51892,-7.34219 c -0.0465,-0.32742 -0.26314,-0.59531 -0.48142,-0.59531 -0.21828,0 -0.43492,0.26789 -0.48142,0.59531 -0.0651,0.45818 0.0458,0.59531 0.48142,0.59531 0.43559,0 0.54649,-0.13713 0.48142,-0.59531 z m -28.67587,-2.71572 c 2.05155,-0.97054 5.04076,-4.37227 5.79245,-6.59183 0.90659,-2.67696 0.41152,-6.53298 -1.04712,-8.15571 -0.4909,-0.54612 -0.89254,-1.09625 -0.89254,-1.22251 0,-0.12626 -0.49585,-0.69147 -1.10189,-1.25601 -0.60604,-0.56455 -1.46924,-1.38364 -1.91823,-1.8202 -0.80669,-0.78436 -0.85076,-0.79375 -3.72676,-0.79375 -2.8196,0 -2.9517,0.0263 -4.23333,0.84416 -1.82916,1.16719 -3.1926,2.6843 -4.04236,4.49798 -0.6584,1.40526 -0.72014,1.80923 -0.72014,4.71203 0,2.90644 0.0612,3.30564 0.72356,4.71951 0.84948,1.81326 1.70936,2.89285 3.21209,4.03279 2.42668,1.84082 5.42446,2.23034 7.95427,1.03354 z m -4.71009,-8.499 c -1.0546,-1.0546 -0.97458,-2.51793 0.20204,-3.69455 1.41554,-1.41554 3.06352,-1.11378 4.02014,0.73612 0.92951,1.79747 -0.29346,3.65596 -2.40578,3.65596 -0.85611,0 -1.28268,-0.16381 -1.8164,-0.69753 z m -22.12879,36.33838 c -0.80036,-0.15014 -1.51474,-0.35997 -1.5875,-0.46631 -0.0728,-0.10633 -0.96573,-0.40167 -1.98438,-0.6563 -1.01864,-0.25464 -2.21634,-0.74036 -2.66155,-1.07938 -0.86993,-0.66245 -1.96865,-2.5999 -1.96865,-3.47146 0,-0.91958 0.71521,-2.28264 1.69062,-3.22201 0.77531,-0.74666 1.18606,-0.92412 2.36542,-1.02192 2.69635,-0.2236 4.2032,1.04087 5.13226,4.30674 0.28978,1.01865 0.73836,2.58732 0.99685,3.48595 0.47994,1.66847 0.41582,2.49441 -0.18883,2.43242 -0.18647,-0.0191 -0.99388,-0.1576 -1.79424,-0.30773 z m 40.48125,-14.16253 c -0.50932,-0.10053 -0.79584,-0.26682 -0.63669,-0.36955 0.5117,-0.33029 7.31788,-0.76947 9.36794,-0.60448 2.75091,0.2214 3.31939,0.35924 2.96071,0.71792 -0.33395,0.33395 -10.20237,0.55012 -11.69196,0.25611 z m 1.64041,-17.2979 c -0.17462,-0.17463 -0.3175,-0.62706 -0.3175,-1.00542 0,-1.11432 0.44729,-1.32291 2.83672,-1.32291 2.09174,0 2.21677,0.033 2.50309,0.66146 0.22546,0.49481 0.22546,0.8281 0,1.32291 -0.28632,0.62842 -0.41135,0.66146 -2.50309,0.66146 -1.35967,0 -2.32314,-0.12143 -2.51922,-0.3175 z m 7.99255,-0.34396 c -0.40148,-0.61274 -0.40148,-0.71017 0,-1.32291 0.38151,-0.58227 0.62094,-0.66146 1.9998,-0.66146 1.28282,0 1.63567,0.0989 1.94903,0.54628 0.39975,0.57072 0.29658,1.56359 -0.19712,1.89706 -0.15829,0.10691 -0.96966,0.19621 -1.80305,0.19844 -1.32661,0.004 -1.56921,-0.0783 -1.94866,-0.65741 z"
         id="path1913" />
      <path
         style="fill:#a8bcef;stroke-width:0.264583"
         d="m 153.25889,214.51587 c -1.80465,-0.70529 -3.37753,-1.89916 -4.38487,-3.3283 -1.47483,-2.09234 -1.59445,-2.89552 -1.59761,-10.72679 -0.003,-6.39134 0.0486,-7.23236 0.52335,-8.59896 0.28941,-0.83311 0.85311,-1.80093 1.25265,-2.15072 l 0.72644,-0.63598 -0.76387,-0.55464 c -3.68186,-2.67338 -4.06718,-3.28926 -3.10445,-4.96204 l 0.57276,-0.99519 -0.66313,-1.76178 c -0.36472,-0.96897 -0.78347,-2.51511 -0.93057,-3.43586 -0.14709,-0.92075 -0.34324,-1.88894 -0.43589,-2.15152 -0.13393,-0.37957 -0.0986,-0.41282 0.17246,-0.16222 0.23862,0.22062 1.08737,0.27095 2.82846,0.16774 2.07792,-0.12319 2.5667,-0.0758 2.96832,0.28763 0.45486,0.41165 0.51025,0.36705 1.02711,-0.82698 0.5968,-1.3787 0.57507,-1.69026 -0.0727,-1.04247 -0.34344,0.34343 -0.81264,0.39045 -2.59229,0.25976 -3.70848,-0.27233 -3.97153,-0.62701 -4.11535,-5.54882 -0.11735,-4.01577 -0.0383,-4.50619 0.9075,-5.63022 0.68248,-0.81108 0.69521,-0.81414 3.3819,-0.81414 h 2.69684 l 0.3483,1.17962 c 0.19157,0.64879 0.35971,2.10731 0.37365,3.24115 0.0139,1.13383 0.0684,1.68704 0.12104,1.22933 0.115,-1.00017 0.80635,-1.68309 1.93822,-1.91458 0.73474,-0.15027 0.90517,-0.36389 1.41614,-1.77506 0.78098,-2.15686 1.48232,-3.23544 3.06871,-4.71932 2.03649,-1.9049 3.33227,-2.39439 6.34723,-2.39773 2.31498,-0.003 2.6601,0.0673 4.28892,0.86849 2.24507,1.10428 3.81802,2.86068 4.85562,5.42192 0.70599,1.74269 0.77332,2.18587 0.77332,5.09022 0,2.90498 -0.0681,3.35315 -0.78426,5.15937 -1.01739,2.56606 -3.29673,4.94284 -5.54795,5.78513 -1.95378,0.731 -4.91583,0.75622 -6.7547,0.0575 -2.89233,-1.099 -5.2983,-3.72533 -6.34912,-6.93062 -0.331,-1.00965 -0.70514,-1.89958 -0.83142,-1.97763 -0.31126,-0.19237 -1.29387,1.46265 -1.2951,2.18135 -0.001,0.67543 -1.26276,4.13563 -2.20124,6.03732 -0.70902,1.43673 -0.67876,1.62507 0.51908,3.2306 0.73095,0.97972 2.85273,2.4509 4.74102,3.2873 1.28844,0.5707 1.49725,0.57869 15.72557,0.60211 7.93088,0.013 14.98443,-0.0536 15.67454,-0.14822 1.63878,-0.22459 2.27785,0.27083 3.5059,2.7178 1.0723,2.13662 1.14085,2.48154 0.41612,2.09367 -0.66292,-0.35478 -3.72994,-0.34836 -7.77707,0.0163 -3.45985,0.31172 -4.05629,0.56574 -4.1978,1.78786 -0.0628,0.5422 -0.24517,0.71898 -0.80867,0.78382 -1.01617,0.11693 -0.90907,0.43776 0.38497,1.15323 1.0441,0.57728 2.67402,2.51666 2.43717,2.89989 -0.059,0.0955 -0.55446,0.0699 -1.10094,-0.057 -1.389,-0.32255 -1.65506,-0.29936 -1.65506,0.14421 0,0.63477 0.91317,0.93535 2.84162,0.93535 1.52381,0 1.96319,0.10706 2.71463,0.66146 0.7981,0.58882 1.15509,0.66146 3.25071,0.66146 1.96473,0 2.47048,-0.0894 3.05745,-0.54052 0.38682,-0.29729 0.99668,-0.75956 1.35525,-1.02726 0.58502,-0.43676 0.61897,-0.55909 0.33073,-1.19171 -0.50076,-1.09905 -0.3833,-2.15322 0.33506,-3.00693 0.7951,-0.94493 1.90949,-1.20715 3.46527,-0.8154 2.09063,0.52643 2.8654,2.6954 1.50085,4.20161 -0.63175,0.69734 -0.92901,0.81117 -2.25642,0.86407 l -1.52882,0.0609 -0.27284,1.01268 c -0.37776,1.40214 -0.22632,2.05258 0.59121,2.53921 0.89731,0.53411 2.24477,2.11004 2.59759,3.03801 0.15068,0.39633 0.27396,1.65859 0.27396,2.80503 0,2.82602 0.1256,2.9082 4.44485,2.9082 3.26008,0 3.27083,0.002 4.04217,0.77339 1.0346,1.0346 1.02546,2.09612 -0.0284,3.29639 l -0.80179,0.91319 -25.32582,-0.0106 c -24.27006,-0.0102 -25.37961,-0.0316 -26.6165,-0.51503 z m -2.41347,-26.69876 c 0.80376,-0.51331 1.0094,-0.61091 2.3151,-1.09881 1.371,-0.51229 0.7657,-1.26601 -1.01671,-1.26601 -1.01087,0 -3.12939,-0.90496 -3.88319,-1.65876 -0.26975,-0.26975 -0.74862,-0.45336 -1.06417,-0.40803 -0.71869,0.10324 -1.22354,1.3589 -0.80999,2.0146 0.28198,0.4471 3.28095,2.93127 3.53292,2.92646 0.0728,-0.001 0.48948,-0.23064 0.92604,-0.50945 z m 17.48719,-9.80512 c 3.67738,-1.37588 6.19301,-5.4433 6.19301,-10.01321 0,-3.40644 -1.50436,-6.39733 -4.31584,-8.58049 -1.74807,-1.3574 -3.53551,-1.88479 -5.64878,-1.66668 -2.98112,0.30768 -6.03616,2.59894 -7.39888,5.54913 -0.70384,1.52377 -0.76045,1.88271 -0.76045,4.82134 0,2.90644 0.0612,3.30564 0.72356,4.71951 1.16755,2.49222 3.07446,4.37091 5.36185,5.28249 1.5302,0.60982 4.04493,0.5616 5.84553,-0.11209 z m -4.6346,-8.59051 c -0.65987,-0.55525 -0.81405,-0.88599 -0.81405,-1.74625 0,-1.35848 1.35664,-2.86044 2.58369,-2.86044 1.7018,0 2.99915,1.88792 2.44701,3.56091 -0.57212,1.73352 -2.75571,2.27508 -4.21665,1.04578 z m -13.15704,7.44032 c 0.082,-0.21362 0.0352,-0.45877 -0.10398,-0.54478 -0.13917,-0.086 -0.25303,0.0888 -0.25303,0.3884 0,0.63886 0.14714,0.70331 0.35701,0.15638 z m 2.32295,-7.15222 c -0.12258,-0.44396 -0.17466,-0.40135 -0.3234,0.26458 -0.0975,0.43656 -0.17889,1.15094 -0.18085,1.5875 -0.003,0.73646 0.02,0.71736 0.32341,-0.26458 0.17983,-0.58208 0.26121,-1.29646 0.18084,-1.5875 z m 2.08254,-1.71979 c 0,-0.65938 -0.10649,-0.79375 -0.62906,-0.79375 -0.86922,0 -1.39968,0.65896 -0.95844,1.19062 0.18116,0.21828 0.61245,0.39688 0.95844,0.39688 0.52257,0 0.62906,-0.13438 0.62906,-0.79375 z m -13.49375,37.53181 c -2.7052,-0.83012 -4.59003,-1.31755 -5.09323,-1.31715 -0.25466,2e-4 -0.46302,-0.11385 -0.46302,-0.25345 0,-0.13959 -0.2959,-0.38863 -0.65755,-0.55341 -0.79082,-0.36032 -1.7237,-2.17498 -1.7237,-3.35296 0,-3.68269 4.58461,-5.6447 7.21672,-3.08843 0.68463,0.66491 1.06766,1.39688 1.48208,2.8323 0.30737,1.06461 0.79963,2.72431 1.09391,3.68822 0.48178,1.57805 0.4961,2.64769 0.0347,2.59284 -0.0936,-0.0111 -0.94404,-0.2577 -1.88992,-0.54796 z m 40.48125,-13.93683 c -0.50932,-0.10053 -0.79584,-0.26682 -0.63669,-0.36955 0.5117,-0.33029 7.31788,-0.76947 9.36794,-0.60448 2.75091,0.2214 3.31939,0.35924 2.96071,0.71792 -0.33395,0.33395 -10.20237,0.55012 -11.69196,0.25611 z m -4.89479,-7.4554 c -0.0899,-0.14552 0.0816,-0.26458 0.38126,-0.26458 0.29963,0 0.54478,0.11906 0.54478,0.26458 0,0.14552 -0.17157,0.26458 -0.38126,0.26458 -0.20969,0 -0.45485,-0.11906 -0.54478,-0.26458 z m 0.66145,-1.50796 c -1.31854,-0.47599 -1.73484,-2.51073 -0.71055,-3.473 1.20726,-1.13416 3.62097,-0.45943 3.62097,1.01221 0,0.62814 0.0739,0.64017 1.00533,0.16358 1.86705,-0.95536 4.17014,-0.75236 5.31725,0.46869 l 0.57956,0.61691 0.80122,-0.74845 c 1.30155,-1.21584 3.05326,-1.24168 5.89994,-0.0871 0.35814,0.14527 0.44998,0.11408 0.31365,-0.1065 -0.33106,-0.53567 0.067,-1.22419 0.99745,-1.72527 0.8377,-0.45114 0.9478,-0.4542 1.73279,-0.0483 1.60244,0.82865 1.73003,2.54969 0.26963,3.63675 -0.66847,0.49758 -0.70704,0.49686 -2.75169,-0.0511 -1.14055,-0.30564 -2.28615,-0.6694 -2.54579,-0.80835 -0.85622,-0.45824 -2.29925,-0.29456 -2.87778,0.32642 -0.29671,0.31848 -0.53948,0.66424 -0.53948,0.76835 0,0.10412 -0.59477,0.19391 -1.32172,0.19954 -1.09702,0.008 -1.37363,-0.0884 -1.6271,-0.56992 -0.64895,-1.23281 -1.41858,-1.26525 -4.47222,-0.1885 -2.20569,0.77776 -2.91216,0.89525 -3.69146,0.61393 z m 1.05834,-2.06391 c 0,-0.36381 -0.10518,-0.66146 -0.23373,-0.66146 -0.2771,0 -0.56769,0.96246 -0.35486,1.1753 0.33232,0.33232 0.58859,0.1086 0.58859,-0.51384 z m 18.33575,0.30673 c 0.2035,-0.53031 -0.23155,-1.06799 -0.71426,-0.88276 -0.61049,0.23427 -0.54784,1.23748 0.0773,1.23748 0.27548,0 0.56212,-0.15962 0.63698,-0.35472 z m -9.54879,-7.47826 c -0.2834,-0.30661 -0.24981,-0.3691 0.19844,-0.3691 0.29678,0 0.5396,0.11204 0.5396,0.24897 0,0.43807 -0.38608,0.50092 -0.73804,0.12013 z m 7.3944,-0.10452 c 0,-0.3638 0.06,-0.51263 0.13345,-0.33073 0.0734,0.18191 0.0734,0.47956 0,0.66146 -0.0734,0.1819 -0.13345,0.0331 -0.13345,-0.33073 z m -50.57719,-13.21628 c 0,-0.48321 -0.14151,-0.5063 -2.20844,-0.36044 -2.09091,0.14756 -2.23107,0.12352 -2.63398,-0.4517 -0.3966,-0.56623 -0.3889,-0.65901 0.11306,-1.36396 0.29624,-0.41602 1.25494,-1.24285 2.13045,-1.8374 1.28178,-0.87044 1.56731,-1.19164 1.46589,-1.64904 -0.18758,-0.84603 -1.256,-3.84061 -1.85466,-5.19826 -1.07634,-2.44094 -0.85084,-4.51859 0.60279,-5.55366 0.39612,-0.28207 2.55329,-1.18302 4.7937,-2.00212 2.24041,-0.8191 5.32429,-1.95444 6.85306,-2.52299 3.10951,-1.15643 3.4095,-1.19894 4.49592,-0.63713 1.05631,0.54624 1.89979,1.78346 2.70589,3.96902 0.3757,1.01865 0.96839,2.62599 1.31709,3.57188 l 0.634,1.71979 2.50398,-0.09 c 2.25089,-0.0809 2.55347,-0.0353 2.99355,0.45097 0.47808,0.52828 0.4749,0.55909 -0.13585,1.31366 -1.39931,1.72885 -5.32658,4.07318 -9.76056,5.82644 -1.23307,0.48757 -2.48006,0.99036 -2.7711,1.11731 -0.99295,0.43313 -2.90861,1.08396 -4.0349,1.37082 -0.98066,0.24977 -1.12448,0.3794 -1.12448,1.01353 0,0.39992 0.14883,0.78751 0.33073,0.86132 0.24889,0.10099 0.23252,0.20365 -0.0661,0.41487 -0.51571,0.36472 -5.11931,0.38747 -4.8948,0.0242 0.25869,-0.41857 -0.29642,-0.30754 -0.66145,0.13229 -0.45452,0.54765 -0.79375,0.49662 -0.79375,-0.11941 z"
         id="path1911" />
      <path
         style="fill:#94adf0;stroke-width:0.264583"
         d="m 153.30479,214.41989 c -1.97367,-0.78992 -2.93515,-1.49618 -4.1789,-3.06964 -1.66615,-2.10784 -1.85235,-3.19367 -1.85235,-10.80211 0,-5.99377 0.0539,-6.81756 0.54523,-8.3385 0.29988,-0.92821 0.85374,-2.02054 1.2308,-2.4274 l 0.68557,-0.73975 -0.74202,-0.53833 c -3.67604,-2.66694 -4.02413,-3.23713 -3.05858,-5.01016 l 0.59055,-1.08442 -0.55905,-1.48988 c -0.47245,-1.2591 -1.31846,-4.64154 -1.33374,-5.33245 -0.003,-0.11426 0.218,-0.0886 0.49006,0.057 0.27205,0.1456 1.43291,0.25747 2.57968,0.24861 1.14678,-0.009 2.21325,-0.005 2.36995,0.009 0.16199,0.0144 0.24295,0.39626 0.18766,0.88518 l -0.0973,0.8599 0.52207,-0.92604 c 0.28715,-0.50933 0.96524,-2.16171 1.50687,-3.67197 0.86908,-2.42329 0.9489,-2.84518 0.67933,-3.59066 -0.70843,-1.95914 -0.0272,-3.44123 1.6687,-3.63025 0.69819,-0.0778 0.8432,-0.26107 1.33122,-1.68229 0.75174,-2.18925 1.4763,-3.28021 3.29983,-4.96847 1.95364,-1.80873 3.31324,-2.3001 6.36425,-2.3001 2.03585,0 2.47605,0.092 3.94089,0.82403 2.13436,1.06655 3.52514,2.53394 4.73595,4.9968 0.97319,1.97952 0.97557,1.99283 0.97557,5.43768 v 3.45331 l -0.99461,2.01247 c -1.13252,2.29149 -3.24356,4.43691 -5.21648,5.30141 -1.67646,0.7346 -4.3233,0.89561 -6.12288,0.37246 -3.11324,-0.90504 -5.8207,-3.70657 -7.01285,-7.25651 -0.33898,-1.00942 -0.76983,-1.81596 -0.9951,-1.8628 -0.43904,-0.0913 -1.22162,1.2074 -1.22162,2.02729 0,0.56084 -1.47934,4.49888 -2.38632,6.35243 -0.49364,1.00884 -0.52238,1.25472 -0.22936,1.96213 0.46929,1.13297 2.98948,3.53897 4.58459,4.37686 1.86067,0.97739 4.93779,1.15661 21.21601,1.23566 7.29467,0.0354 13.40877,0.15447 13.58689,0.26456 0.17812,0.11008 0.50392,0.6321 0.724,1.16004 0.22007,0.52793 0.62465,1.27592 0.89904,1.66219 0.62027,0.87315 0.62885,1.09193 0.0359,0.91496 -0.84455,-0.25207 -5.18164,-0.19781 -8.26823,0.10343 -2.51396,0.24535 -3.12317,0.39111 -3.50573,0.8388 -0.25466,0.29801 -0.46302,0.76677 -0.46302,1.04169 0,0.35357 -0.18901,0.49986 -0.64584,0.49986 -1.31012,0 -1.06035,0.81464 0.44227,1.44247 0.58854,0.24591 1.29054,0.87274 1.78937,1.59776 l 0.82087,1.1931 h -0.88583 c -0.48721,0 -1.02956,-0.14372 -1.20523,-0.31939 -0.24946,-0.24946 -0.41828,-0.2205 -0.77107,0.13229 -0.79355,0.79355 0.007,1.21052 2.43984,1.27021 1.73156,0.0425 2.28429,0.16531 3.03798,0.67504 0.80541,0.54471 1.23372,0.6231 3.40465,0.6231 2.35986,0 2.52656,-0.0379 3.35253,-0.76316 0.47805,-0.41973 1.0258,-0.81535 1.21722,-0.87916 0.28679,-0.0956 0.28522,-0.30638 -0.009,-1.1977 -0.82999,-2.5149 1.04197,-4.39629 3.68093,-3.69948 1.13406,0.29944 1.50828,0.59175 2.017,1.57549 0.31365,0.60654 0.33447,0.94527 0.10147,1.65125 -0.38811,1.176 -1.22069,1.67801 -2.94625,1.77646 l -1.42118,0.0811 -0.31959,1.29498 c -0.34106,1.38199 -0.11307,2.2769 0.58007,2.2769 0.54268,0 1.95733,1.54948 2.5364,2.77812 0.35107,0.74489 0.50051,1.66003 0.5046,3.08996 0.008,2.83848 0.0438,2.86317 4.13506,2.86317 3.76421,0 4.42502,0.24285 4.85012,1.78244 0.19306,0.6992 0.16441,1.11522 -0.11384,1.6533 -0.83567,1.616 0.74706,1.52511 -26.59906,1.52751 l -24.99667,0.002 -1.50938,-0.6041 z m -2.98854,-26.32177 c 0.0899,-0.14552 0.39462,-0.26458 0.67707,-0.26458 0.28246,0 0.51356,-0.11448 0.51356,-0.25439 0,-0.13991 0.46238,-0.37889 1.02751,-0.53106 1.98473,-0.53444 2.10432,-1.5958 0.17981,-1.5958 -1.19171,0 -2.20111,-0.36751 -3.98545,-1.45105 -1.35044,-0.82005 -1.92266,-0.82597 -2.28821,-0.0237 -0.47233,1.03665 -0.0586,1.79371 1.69613,3.10375 1.80108,1.34465 1.9376,1.40834 2.17958,1.01681 z m 18.79604,-10.3822 c 2.24771,-1.15112 4.2132,-3.61956 4.99123,-6.26843 2.04908,-6.97627 -2.97136,-14.28598 -9.41082,-13.70207 -3.06267,0.27771 -6.14214,2.54944 -7.53058,5.55532 -0.70384,1.52377 -0.76045,1.88271 -0.76045,4.82134 0,2.90644 0.0612,3.30564 0.72356,4.71951 1.16245,2.48132 3.04266,4.33928 5.36185,5.2984 1.61937,0.6697 4.89945,0.45975 6.62521,-0.42407 z m -5.48806,-8.41599 c -0.71501,-0.71502 -0.78961,-0.93265 -0.65744,-1.91823 0.21187,-1.57999 1.46212,-2.68479 2.79776,-2.47228 1.28798,0.20493 2.14649,1.22255 2.14649,2.54432 0,1.39053 -0.20051,1.81224 -1.07725,2.26563 -1.22163,0.63172 -2.29922,0.4909 -3.20956,-0.41944 z m -8.53696,-1.39897 c 0.008,-0.87541 -0.0598,-0.96951 -0.69521,-0.96951 -1.36558,0 -1.77422,1.52774 -0.50254,1.87883 1.00874,0.2785 1.18851,0.14202 1.19775,-0.90932 z M 141.585,205.51841 c -1.71747,-0.56594 -2.86527,-0.90139 -4.45927,-1.30324 -1.9375,-0.48846 -3.24521,-1.91354 -3.37841,-3.68163 -0.10659,-1.41491 0.0593,-2.06667 0.76008,-2.98606 0.8342,-1.09445 1.75912,-1.56478 3.07724,-1.56478 2.38913,0 3.8086,1.15697 4.52456,3.68787 0.23719,0.83843 0.71728,2.45046 1.06688,3.58229 0.57349,1.85665 0.63403,2.87911 0.16655,2.81279 -0.0936,-0.0133 -0.8845,-0.25953 -1.75763,-0.54724 z m 40.34896,-13.93364 c -0.50932,-0.10053 -0.79584,-0.26682 -0.63669,-0.36955 0.5117,-0.33029 7.31788,-0.76947 9.36794,-0.60448 2.75091,0.2214 3.31939,0.35924 2.96071,0.71792 -0.33395,0.33395 -10.20237,0.55012 -11.69196,0.25611 z m -4.15176,-9.04544 c -1.45142,-0.58463 -1.76662,-2.70349 -0.53092,-3.56901 1.19309,-0.83567 3.09518,-0.17628 3.09518,1.07301 0,0.46352 0.14533,0.64646 0.51355,0.64646 0.28245,0 0.57467,-0.0989 0.64938,-0.21978 0.0747,-0.12088 0.78088,-0.36413 1.56927,-0.54057 1.23006,-0.27527 1.58984,-0.25821 2.53578,0.12028 0.695,0.27809 1.25232,0.73109 1.5082,1.22591 0.784,1.51609 -0.22928,2.12831 -1.21993,0.73707 -0.74494,-1.04616 -1.81979,-1.04734 -4.77522,-0.005 -2.44614,0.86254 -2.50219,0.87145 -3.34529,0.53185 z m 1.23729,-1.65111 c -0.002,-0.1819 -0.11633,-0.50832 -0.25357,-0.72539 -0.32652,-0.51646 -0.94302,0.0391 -0.71186,0.64146 0.18881,0.49202 0.97126,0.56004 0.96543,0.0839 z m 8.91169,1.74184 c -0.41978,-0.41978 -0.12104,-1.41064 0.61102,-2.02663 1.17772,-0.99098 2.13502,-1.09946 4.1001,-0.46461 0.93799,0.30303 1.76192,0.55097 1.83097,0.55097 0.069,0 0.16321,-0.3216 0.20926,-0.71467 0.0556,-0.4744 0.36745,-0.87974 0.92767,-1.20567 0.78681,-0.45776 0.89954,-0.46225 1.66511,-0.0663 1.60022,0.8275 1.70525,2.54652 0.22301,3.64996 l -0.70751,0.52671 -2.56532,-0.83041 c -3.34627,-1.08321 -4.39724,-1.09069 -5.14778,-0.0367 -0.57107,0.802 -0.82511,0.93878 -1.14653,0.61736 z m 9.1553,-1.74184 c 0.18952,-0.54334 -0.0949,-0.99218 -0.62875,-0.99218 -0.35786,0 -0.50086,0.18885 -0.50086,0.66146 0,0.47548 0.14259,0.66145 0.50712,0.66145 0.27892,0 0.55903,-0.14882 0.62249,-0.33073 z m -49.01919,-7.80015 c -2.4366,-0.32066 -2.64583,-0.75257 -2.64583,-5.46172 0,-3.45959 0.0204,-3.589 0.69298,-4.38827 l 0.69298,-0.82357 2.41588,0.0757 2.41587,0.0757 0.18723,1.71979 c 0.3574,3.28288 0.38964,5.6162 0.1,7.23553 l -0.29122,1.62801 -1.4532,0.013 c -0.79927,0.007 -1.75087,-0.0262 -2.11467,-0.0741 z m -3.70416,-13.15979 c 0,-0.32114 -0.35596,-0.36271 -2.05052,-0.23947 -1.55726,0.11325 -2.17129,0.0575 -2.55256,-0.2317 -0.88663,-0.67256 -0.35394,-1.65235 1.72171,-3.16679 1.4752,-1.07635 1.84071,-1.4763 1.74433,-1.90871 -0.18902,-0.84806 -1.2672,-3.85548 -1.85608,-5.17724 -0.29175,-0.65484 -0.57771,-1.78594 -0.63548,-2.51354 -0.20408,-2.57051 0.87484,-3.35176 7.86193,-5.69282 0.3638,-0.1219 1.4949,-0.53555 2.51354,-0.91924 4.98107,-1.87619 5.62912,-2.04755 6.56961,-1.73716 1.23336,0.40705 1.91039,1.21078 2.69912,3.20425 0.37111,0.93796 0.7794,1.94351 0.90731,2.23455 0.12791,0.29104 0.51591,1.30307 0.86222,2.24896 l 0.62964,1.71979 2.50398,-0.09 c 2.24454,-0.0807 2.55429,-0.0344 2.9895,0.4465 0.47619,0.52618 0.46144,0.56224 -0.76736,1.87593 -0.68909,0.73669 -1.35853,1.33944 -1.48765,1.33944 -0.12911,0 -0.81206,0.39712 -1.51766,0.88248 -1.86265,1.28128 -9.16498,4.4052 -12.82024,5.48447 -1.2657,0.37372 -1.80459,1.11936 -1.34565,1.86194 0.15289,0.24738 -0.35398,0.28567 -2.19918,0.16613 -1.83445,-0.11885 -2.51249,-0.0685 -2.88575,0.21431 -0.63266,0.47936 -0.88476,0.47876 -0.88476,-0.002 z"
         id="path1909" />
      <path
         style="fill:#869eea;stroke-width:0.264583"
         d="m 153.56088,214.29387 c -2.23266,-0.84939 -3.48681,-1.75718 -4.53973,-3.28598 -1.48733,-2.15953 -1.72732,-3.66505 -1.73831,-10.90498 -0.008,-5.12443 0.0552,-6.17271 0.38758,-6.44854 0.21828,-0.18116 0.39687,-0.61004 0.39687,-0.95308 0,-1.05807 0.7801,-2.64148 1.60003,-3.24768 0.42967,-0.31767 0.78122,-0.75261 0.78122,-0.96654 0,-0.21392 0.22821,-0.38895 0.50712,-0.38895 0.27892,0 0.55519,-0.14421 0.61394,-0.32048 0.0588,-0.17626 0.69376,-0.44459 1.41112,-0.59628 1.07581,-0.2275 1.31992,-0.38626 1.39358,-0.90637 0.1157,-0.81704 -0.33273,-1.07825 -1.85962,-1.08324 -0.68264,-0.002 -1.31474,-0.12311 -1.40468,-0.26863 -0.0899,-0.14552 -0.44823,-0.26458 -0.79622,-0.26458 -0.34798,0 -0.72791,-0.15731 -0.84428,-0.34957 -0.11637,-0.19227 -0.71285,-0.54659 -1.32551,-0.78739 -1.08929,-0.42813 -1.12295,-0.42495 -1.52136,0.14386 -0.43404,0.61967 -0.52425,1.47262 -0.20493,1.93764 0.10691,0.15569 0.84937,0.76264 1.64991,1.34877 1.74406,1.27696 2.36547,1.94005 1.81802,1.93996 -0.66949,-1.1e-4 -4.04875,-2.75351 -4.31557,-3.5163 -0.20829,-0.59547 -0.14004,-0.95458 0.35293,-1.85701 l 0.61116,-1.11878 -0.65005,-2.24403 c -0.35753,-1.23421 -0.7672,-2.73976 -0.91037,-3.34567 -0.24804,-1.04971 -0.23427,-1.09292 0.29215,-0.9168 0.30385,0.10165 1.47486,0.18067 2.60225,0.17559 l 2.0498,-0.009 7.1e-4,0.85989 c 10e-4,1.35616 0.38989,1.01865 1.28623,-1.11671 1.60234,-3.81723 2.0144,-5.38027 1.66972,-6.33349 -0.7124,-1.97011 -0.035,-3.45165 1.66477,-3.64111 0.69819,-0.0778 0.8432,-0.26107 1.33122,-1.68229 0.75175,-2.18926 1.47631,-3.28022 3.29984,-4.96848 1.95364,-1.80873 3.31324,-2.3001 6.36425,-2.3001 2.03585,0 2.47605,0.092 3.94089,0.82403 2.13436,1.06655 3.52514,2.53394 4.73595,4.9968 0.97319,1.97952 0.97557,1.99283 0.97557,5.43768 v 3.45331 l -0.99461,2.01247 c -1.13252,2.29149 -3.24356,4.43691 -5.21648,5.30141 -1.67646,0.7346 -4.3233,0.89561 -6.12288,0.37246 -3.11324,-0.90504 -5.8207,-3.70657 -7.01285,-7.25651 -0.32916,-0.98017 -0.77192,-1.81646 -0.9852,-1.86089 -0.5202,-0.10836 -1.23152,0.95405 -1.23152,1.83937 0,0.77447 -1.20913,3.97378 -2.38807,6.31872 -0.66666,1.326 -0.70329,1.53929 -0.39168,2.2804 0.51592,1.22702 3.26277,3.89562 4.82436,4.68694 1.20054,0.60836 1.69956,0.69797 3.8867,0.69797 3.81246,0 4.9119,0.31869 6.33009,1.83485 1.0838,1.15867 1.75616,2.59834 1.76004,3.76865 0.004,1.13248 0.60121,1.27567 5.32276,1.27567 4.19798,0 4.54041,0.0375 5.26968,0.57665 1.35753,1.00366 1.2692,2.92318 -0.19551,4.24873 -0.45377,0.41065 -1.3578,0.46581 -8.66347,0.52854 -7.4355,0.0638 -8.18266,0.11099 -8.44878,0.53306 -0.54797,0.86906 0.1111,1.3689 2.09891,1.59182 2.20721,0.24753 3.82232,1.12582 4.80727,2.61418 0.5926,0.89548 0.73291,1.46617 0.86906,3.53477 0.0893,1.35678 0.31074,2.64565 0.49208,2.86416 0.26338,0.31734 1.22105,0.41502 4.75995,0.48549 3.67786,0.0732 4.55045,0.16709 5.13809,0.55262 0.84674,0.55552 1.2653,1.88623 0.9163,2.91318 -0.52573,1.54696 -0.28139,1.51952 -13.28363,1.49203 -10.79977,-0.0228 -12.03069,-0.0698 -13.16681,-0.50198 z m 15.55141,-36.57795 c 2.24771,-1.15112 4.2132,-3.61956 4.99123,-6.26843 2.04908,-6.97627 -2.97136,-14.28598 -9.41082,-13.70207 -3.06267,0.27771 -6.14214,2.54944 -7.53058,5.55532 -0.70384,1.52377 -0.76045,1.88271 -0.76045,4.82134 0,2.90644 0.0612,3.30564 0.72356,4.71951 1.16245,2.48132 3.04266,4.33928 5.36185,5.2984 1.61937,0.6697 4.89945,0.45975 6.62521,-0.42407 z m -5.48806,-8.41599 c -0.70657,-0.70658 -0.78871,-0.93931 -0.66279,-1.87809 0.26489,-1.97489 2.0038,-3.0494 3.59953,-2.22422 1.00352,0.51894 1.35121,1.15027 1.34602,2.44404 -0.005,1.1471 -0.13071,1.39005 -1.04701,2.01711 -1.04515,0.71524 -2.30094,0.57597 -3.23575,-0.35884 z m -8.53696,-1.39897 c 0.008,-0.87541 -0.0598,-0.96951 -0.69521,-0.96951 -1.36558,0 -1.77422,1.52774 -0.50254,1.87883 1.00874,0.2785 1.18851,0.14202 1.19775,-0.90932 z m 34.85793,46.11013 c 1.61938,-1.07264 2.76908,-2.41804 3.58008,-4.1895 0.56124,-1.22592 0.68417,-1.95931 0.79033,-4.71505 0.0691,-1.79483 0.22036,-3.32182 0.33604,-3.39331 0.29002,-0.17924 1.38428,0.87909 2.06304,1.99531 0.45816,0.75343 0.56331,1.34814 0.56411,3.19057 0.001,3.29888 -0.0317,3.27277 4.28422,3.37724 3.96479,0.096 4.63979,0.35015 4.87385,1.83534 0.16625,1.05483 -0.22437,1.79783 -1.21428,2.30973 -0.63841,0.33013 -2.14005,0.39962 -8.63648,0.39962 h -7.86371 z m -47.14838,-8.64891 c -0.14833,-0.25466 -0.27331,-0.33481 -0.27773,-0.17811 -0.009,0.33162 -1.59555,0.16616 -1.59555,-0.16644 0,-0.12008 -0.56554,-0.30018 -1.25677,-0.40022 -0.69122,-0.10003 -1.40408,-0.29924 -1.58413,-0.44268 -0.18005,-0.14345 -0.49583,-0.19616 -0.70174,-0.11715 -0.2059,0.079 -0.45547,0.0626 -0.55458,-0.0365 -0.0991,-0.0991 -0.27711,-0.18021 -0.39554,-0.18021 -0.11843,0 -0.70382,-0.39257 -1.30086,-0.87236 l -1.08554,-0.87237 0.008,-1.90576 c 0.007,-1.61056 0.10358,-2.01385 0.6231,-2.60353 0.93762,-1.06425 1.61642,-1.31749 3.41141,-1.27271 1.56906,0.0392 1.69186,0.0917 2.63786,1.12847 0.5457,0.59808 0.99218,1.26187 0.99218,1.4751 0,0.37368 0.28133,1.40311 0.83929,3.07107 0.57644,1.72323 0.68979,2.48872 0.38694,2.61308 -0.1651,0.0678 -0.0918,0.13267 0.16284,0.14416 0.27966,0.0126 0.46302,0.23043 0.46302,0.55006 0,0.65269 -0.41046,0.68784 -0.77256,0.0661 z m 50.32008,-8.95463 c -0.63229,-1.46067 -0.4408,-2.42345 0.65313,-3.28394 0.90528,-0.71209 2.59613,-0.71679 2.97532,-0.008 0.15286,0.28562 0.4371,0.45823 0.63163,0.38358 0.41712,-0.16006 1.22573,0.97021 1.22573,1.71333 0,0.28499 -0.30326,0.87857 -0.6739,1.31905 -0.56973,0.67709 -0.84579,0.79423 -1.78594,0.75783 -0.61162,-0.0237 -1.42073,0.05 -1.79802,0.16369 -0.63134,0.19029 -0.72914,0.10704 -1.22795,-1.04528 z m -11.18294,-4.82278 c -0.50932,-0.10053 -0.79584,-0.26682 -0.63669,-0.36955 0.5117,-0.33029 7.31788,-0.76947 9.36794,-0.60448 2.75091,0.2214 3.31939,0.35924 2.96071,0.71792 -0.33395,0.33395 -10.20237,0.55012 -11.69196,0.25611 z m 4.19262,-9.43674 c -1.05298,-1.22297 -1.56578,-1.2703 -4.29403,-0.39636 -3.3158,1.06214 -4.24444,1.04902 -4.93534,-0.0697 -0.62504,-1.01207 -0.49609,-1.96717 0.35644,-2.63994 1.17204,-0.92494 3.09281,-0.28392 3.09281,1.03215 0,0.74896 -0.15131,0.75172 2.72188,-0.0497 1.44154,-0.40211 1.5878,-0.399 2.49646,0.0529 0.53087,0.26405 1.20548,0.8088 1.49912,1.21057 0.49043,0.67099 0.49928,0.76513 0.10866,1.15575 -0.39062,0.39061 -0.47582,0.36653 -1.046,-0.2957 z m -7.15078,-1.52439 c -0.0465,-0.32742 -0.26314,-0.59531 -0.48143,-0.59531 -0.21828,0 -0.43492,0.26789 -0.48142,0.59531 -0.0651,0.45818 0.0458,0.59531 0.48142,0.59531 0.4356,0 0.5465,-0.13713 0.48143,-0.59531 z m 8.95538,2.00642 c -0.45086,-0.45086 -0.12318,-1.42415 0.68351,-2.03013 1.29176,-0.97036 2.19868,-1.04638 4.22032,-0.35374 l 1.77293,0.60742 0.0792,-0.79665 c 0.0568,-0.57181 0.31733,-0.9352 0.9231,-1.28758 0.7868,-0.45768 0.89955,-0.46217 1.66511,-0.0663 1.60174,0.82829 1.70516,2.54657 0.21984,3.65233 l -0.71068,0.52907 -2.59122,-0.85923 c -3.34478,-1.10911 -4.21398,-1.11535 -5.10076,-0.0366 -0.69956,0.85096 -0.86204,0.9407 -1.16131,0.64143 z m 9.1553,-1.74184 c 0.18952,-0.54334 -0.0949,-0.99218 -0.62875,-0.99218 -0.35786,0 -0.50086,0.18885 -0.50086,0.66146 0,0.47548 0.14259,0.66145 0.50712,0.66145 0.27892,0 0.55903,-0.14882 0.62249,-0.33073 z M 144.54339,159.9496 c -0.13136,-0.34232 -0.5051,-0.38638 -2.21963,-0.26165 -1.56781,0.11406 -2.18194,0.0588 -2.56371,-0.23084 -0.88663,-0.67256 -0.35394,-1.65235 1.72171,-3.16679 1.4752,-1.07635 1.84071,-1.4763 1.74433,-1.90871 -0.18902,-0.84806 -1.2672,-3.85548 -1.85608,-5.17724 -0.29175,-0.65484 -0.57771,-1.78594 -0.63548,-2.51354 -0.20408,-2.57051 0.87484,-3.35176 7.86193,-5.69282 0.3638,-0.1219 1.4949,-0.53555 2.51354,-0.91924 4.98107,-1.87619 5.62912,-2.04755 6.56961,-1.73716 1.23336,0.40705 1.91039,1.21078 2.69912,3.20425 0.37111,0.93796 0.7794,1.94351 0.90731,2.23455 0.12791,0.29104 0.51591,1.30307 0.86222,2.24896 l 0.62964,1.71979 2.50398,-0.09 c 2.24454,-0.0807 2.55429,-0.0344 2.9895,0.4465 0.47619,0.52618 0.46144,0.56224 -0.76736,1.87593 -0.68909,0.73669 -1.36705,1.33944 -1.50657,1.33944 -0.13952,0 -0.56972,0.21937 -0.95598,0.48748 -1.7536,1.21723 -6.14935,3.24826 -10.09728,4.66541 -1.52672,0.54803 -3.19257,1.14655 -3.7019,1.33004 -0.71017,0.25585 -0.94639,0.50374 -1.01333,1.06342 l -0.0873,0.7298 -1.98369,-0.16768 c -1.90884,-0.16136 -2.87281,0.0389 -3.295,0.68457 -0.0889,0.13594 -0.2327,0.0619 -0.31958,-0.16448 z"
         id="path1907" />
      <path
         style="fill:#9c9d9a;stroke-width:0.264583"
         d="m 181.93396,191.58477 c -0.50932,-0.10053 -0.79584,-0.26682 -0.63669,-0.36955 0.5117,-0.33029 7.31788,-0.76947 9.36794,-0.60448 2.75091,0.2214 3.31939,0.35924 2.96071,0.71792 -0.33395,0.33395 -10.20237,0.55012 -11.69196,0.25611 z m -34.25857,-4.08202 c -2.2231,-1.67175 -2.594,-2.43619 -1.85121,-3.81546 0.28163,-0.52296 1.06752,-1.51811 1.74643,-2.21146 1.67589,-1.71153 3.17189,-4.31546 4.4763,-7.79142 0.80308,-2.14002 1.045,-3.11481 0.9193,-3.70416 -0.49051,-2.29975 -0.46073,-2.90067 0.17295,-3.49063 0.33917,-0.31577 0.96927,-0.61343 1.40021,-0.66146 0.69819,-0.0778 0.8432,-0.26107 1.33122,-1.68229 0.75174,-2.18926 1.4763,-3.28022 3.29983,-4.96848 1.95364,-1.80873 3.31324,-2.3001 6.36425,-2.3001 2.03585,0 2.47605,0.092 3.94089,0.82403 2.13436,1.06655 3.52514,2.53394 4.73595,4.9968 0.97319,1.97952 0.97557,1.99283 0.97557,5.43768 v 3.45331 l -0.99461,2.01247 c -1.13252,2.29149 -3.24356,4.43691 -5.21648,5.30141 -1.67646,0.7346 -4.3233,0.89561 -6.12288,0.37246 -3.11324,-0.90504 -5.8207,-3.70657 -7.01285,-7.25651 -0.32916,-0.98017 -0.77192,-1.81646 -0.9852,-1.86089 -0.49374,-0.10285 -1.23152,0.93779 -1.23152,1.73704 0,0.77919 -1.60557,4.95082 -2.68472,6.97553 -0.50233,0.94246 -1.58845,2.26895 -2.77454,3.38856 -2.68616,2.5356 -2.66762,2.76482 0.41141,5.0884 1.11249,0.83954 1.64527,1.54436 1.1673,1.54423 -0.12127,-3e-5 -1.05169,-0.62511 -2.0676,-1.38906 z m 21.4369,-9.78683 c 2.24771,-1.15112 4.2132,-3.61956 4.99123,-6.26843 2.04908,-6.97627 -2.97136,-14.28598 -9.41082,-13.70207 -3.06267,0.27771 -6.14214,2.54944 -7.53058,5.55532 -0.70384,1.52377 -0.76045,1.88271 -0.76045,4.82134 0,2.90644 0.0612,3.30564 0.72356,4.71951 1.16245,2.48132 3.04266,4.33928 5.36185,5.2984 1.61937,0.6697 4.89945,0.45975 6.62521,-0.42407 z m -5.48689,-8.41482 c -0.72458,-0.72458 -0.78762,-0.91629 -0.62851,-1.91132 0.30079,-1.88104 1.8233,-2.93312 3.33719,-2.30604 1.09744,0.45457 1.57696,1.22831 1.57696,2.54452 0,0.9127 -0.14362,1.22909 -0.81405,1.79322 -1.1533,0.97044 -2.42487,0.92634 -3.47159,-0.12038 z m -8.53813,-1.40014 c 0.008,-0.87541 -0.0598,-0.96951 -0.69521,-0.96951 -1.36558,0 -1.77422,1.52774 -0.50254,1.87883 1.00874,0.2785 1.18851,0.14202 1.19775,-0.90932 z m 38.54567,13.9571 c -2.96526,-0.99103 -3.71764,-0.98239 -4.53135,0.0521 -0.69826,0.88769 -1.40621,0.84007 -1.29823,-0.0873 0.11612,-0.99728 1.55791,-1.92935 2.96712,-1.91813 0.59695,0.005 1.71043,0.22457 2.47442,0.4885 l 1.38906,0.47988 v -0.57468 c 0,-0.52393 0.69929,-1.36895 1.51358,-1.829 0.42538,-0.24033 1.83725,0.50186 2.18274,1.14742 0.14984,0.27997 0.27243,0.76414 0.27243,1.07594 0,0.63246 -1.35221,2.12454 -1.89788,2.09418 -0.19309,-0.0107 -1.57545,-0.42873 -3.07189,-0.92886 z m 3.45354,-0.96984 c 0.18952,-0.54334 -0.0949,-0.99218 -0.62875,-0.99218 -0.35786,0 -0.50086,0.18885 -0.50086,0.66146 0,0.47548 0.14259,0.66145 0.50712,0.66145 0.27892,0 0.55903,-0.14882 0.62249,-0.33073 z m -20.03231,1.06561 c -0.53057,-0.7575 -0.52875,-2.16771 0.003,-2.69996 1.16709,-1.16708 3.09387,-0.64979 3.24099,0.87012 0.0679,0.7018 0.17167,0.83583 0.52917,0.68372 1.74141,-0.74093 2.69735,-0.94798 3.86854,-0.83792 1.05389,0.099 1.45416,0.28732 2.06557,0.9716 1.31398,1.4706 0.32033,2.21017 -1.08344,0.8064 -0.72783,-0.72784 -0.93239,-0.79924 -1.81927,-0.63501 -0.54957,0.10177 -1.74609,0.46495 -2.65891,0.80706 -2.16202,0.8103 -3.59418,0.82204 -4.14615,0.034 z m 1.96937,-1.39633 c 0,-0.48507 -0.14111,-0.66146 -0.52917,-0.66146 -0.38805,0 -0.52916,0.17639 -0.52916,0.66146 0,0.48506 0.14111,0.66145 0.52916,0.66145 0.38806,0 0.52917,-0.17639 0.52917,-0.66145 z m -39.26349,-21.10049 c -0.88666,-0.67241 -0.35392,-1.65227 1.72171,-3.16669 1.4752,-1.07635 1.84071,-1.4763 1.74433,-1.90871 -0.18902,-0.84806 -1.2672,-3.85548 -1.85608,-5.17724 -0.29175,-0.65484 -0.57771,-1.78594 -0.63548,-2.51354 -0.20408,-2.57051 0.87484,-3.35176 7.86193,-5.69282 0.3638,-0.1219 1.4949,-0.53555 2.51354,-0.91924 4.98107,-1.87619 5.62912,-2.04755 6.56961,-1.73716 1.23336,0.40705 1.91039,1.21078 2.69912,3.20425 0.37111,0.93796 0.7794,1.94351 0.90731,2.23455 0.12791,0.29104 0.51591,1.30307 0.86222,2.24896 l 0.62964,1.71979 2.50398,-0.09 c 2.2403,-0.0805 2.55483,-0.0338 2.98684,0.44355 0.47216,0.52174 0.45849,0.55999 -0.61763,1.72744 -1.25113,1.35731 -1.72957,1.65054 -6.48692,3.9758 -6.47186,3.16325 -14.02474,5.53147 -18.73387,5.87405 -1.66785,0.12133 -2.28407,0.0699 -2.67025,-0.223 z"
         id="path1905" />
      <path
         style="fill:#788ab2;stroke-width:0.264583"
         d="m 182.19854,191.58287 c -2.27757,-0.33946 -0.30542,-0.6408 5.07459,-0.77538 5.42,-0.13559 7.11634,0.005 6.20651,0.51409 -0.5642,0.31574 -9.52347,0.52325 -11.2811,0.26129 z m -33.62853,-3.51788 c -1.84205,-1.30835 -2.88397,-2.40396 -2.88397,-3.03259 0,-0.9089 0.89638,-2.68386 1.65791,-3.28287 0.84438,-0.66419 2.90521,-3.72145 3.68521,-5.46705 0.31488,-0.70468 1.01791,-2.59092 1.5623,-4.19165 0.79812,-2.34681 1.09636,-2.92679 1.5401,-2.99497 0.68928,-0.1059 0.69488,0.23154 0.0221,1.33493 -0.2905,0.47646 -0.52863,1.13867 -0.52917,1.47158 -0.001,0.708 -1.47819,4.62563 -2.51645,6.67453 -0.78211,1.54343 -3.42191,4.49414 -4.0206,4.49414 -0.20356,0 -0.54893,0.42799 -0.7675,0.95109 -0.50053,1.19795 -0.20598,1.72475 1.69508,3.03154 1.10522,0.75972 2.16947,1.8382 1.81396,1.8382 -0.0522,0 -0.61871,-0.37209 -1.25901,-0.82688 z m 28.48416,-6.11116 c -0.53057,-0.7575 -0.52875,-2.16771 0.003,-2.69996 1.16709,-1.16708 3.09387,-0.64979 3.24099,0.87012 0.0679,0.7018 0.17167,0.83583 0.52917,0.68372 1.74141,-0.74093 2.69735,-0.94798 3.86854,-0.83792 1.05389,0.099 1.45416,0.28732 2.06557,0.9716 1.31398,1.4706 0.32033,2.21017 -1.08344,0.8064 -0.72783,-0.72784 -0.93239,-0.79924 -1.81927,-0.63501 -0.54957,0.10177 -1.74609,0.46495 -2.65891,0.80706 -2.16202,0.8103 -3.59418,0.82204 -4.14615,0.034 z m 1.96937,-1.39633 c 0,-0.48507 -0.14111,-0.66146 -0.52917,-0.66146 -0.38805,0 -0.52916,0.17639 -0.52916,0.66146 0,0.48506 0.14111,0.66145 0.52916,0.66145 0.38806,0 0.52917,-0.17639 0.52917,-0.66145 z m 8.77982,1.26531 c 0.11612,-0.99728 1.55791,-1.92935 2.96712,-1.91813 0.59695,0.005 1.71043,0.22457 2.47442,0.4885 l 1.38906,0.47988 v -0.57468 c 0,-0.92275 1.14675,-1.82664 2.03587,-1.60471 1.10739,0.2764 1.66829,0.91038 1.66829,1.88563 0,1.17832 -1.10637,2.07913 -2.24478,1.8277 -0.43886,-0.0969 -0.97652,-0.20197 -1.1948,-0.23344 -0.21828,-0.0315 -1.23881,-0.32379 -2.26785,-0.64962 -2.0558,-0.65093 -2.9792,-0.52833 -3.60832,0.47906 -0.1851,0.29638 -0.55393,0.53887 -0.81963,0.53887 -0.36977,0 -0.46346,-0.16868 -0.39938,-0.71906 z m 9.4246,-1.16537 c 0.092,-0.79324 -0.58785,-1.21864 -1.17233,-0.73357 -0.38836,0.32231 -0.48459,1.08564 -0.17579,1.39444 0.4312,0.4312 1.26911,0.0205 1.34812,-0.66087 z m -34.41723,-1.52701 c -5.48415,-1.80992 -8.78102,-8.44631 -7.04611,-14.18335 0.75396,-2.49319 1.5177,-3.71951 3.50487,-5.62769 2.06041,-1.97852 3.7174,-2.57301 6.64745,-2.38497 1.51875,0.0975 2.24155,0.30985 3.72518,1.09457 2.1255,1.12421 3.21708,2.31968 4.58178,5.01783 0.94657,1.87146 0.96115,1.94858 0.96216,5.08898 0.001,3.15533 -0.009,3.20985 -0.99641,5.20689 -2.37134,4.79809 -7.09599,7.20122 -11.37892,5.78774 z m 6.30162,-1.3138 c 6.42299,-3.03863 7.5076,-13.36302 1.9074,-18.15658 -2.41187,-2.06447 -6.46176,-2.60258 -9.26553,-1.23112 -2.77694,1.35834 -4.863,4.39105 -5.50976,8.0101 -0.5637,3.15428 0.53544,6.86733 2.79162,9.43048 1.59035,1.80674 3.69998,2.70319 6.36142,2.70319 1.77918,0 2.37149,-0.12055 3.71485,-0.75607 z m -5.48695,-8.51553 c -0.72458,-0.72458 -0.78762,-0.91629 -0.62851,-1.91132 0.30079,-1.88104 1.8233,-2.93312 3.33719,-2.30604 1.09744,0.45457 1.57696,1.22831 1.57696,2.54452 0,0.9127 -0.14362,1.22909 -0.81405,1.79322 -1.1533,0.97044 -2.42487,0.92634 -3.47159,-0.12038 z m -10.00186,-2.73821 c 0,-0.0572 0.1786,-0.17252 0.39688,-0.25628 0.21828,-0.0838 0.39687,-0.037 0.39687,0.10398 0,0.14095 -0.17859,0.25628 -0.39687,0.25628 -0.21828,0 -0.39688,-0.0468 -0.39688,-0.10398 z m -13.74922,-7.42566 c -0.56306,-0.67846 0.008,-1.50528 1.93938,-2.80735 1.00708,-0.67897 1.74244,-1.36608 1.7473,-1.63262 0.005,-0.25313 -0.27869,-1.20563 -0.62955,-2.11667 -2.36772,-6.14796 -2.49723,-7.01256 -1.24136,-8.28693 0.75368,-0.76478 1.2135,-0.96958 6.50949,-2.89924 1.45521,-0.53022 3.74996,-1.37114 5.09944,-1.86871 2.69465,-0.99355 4.36762,-1.14077 5.32702,-0.46878 0.62397,0.43704 1.79117,2.74221 2.3917,4.72348 0.17644,0.58208 0.61894,1.78388 0.98334,2.67066 l 0.66255,1.61232 2.59618,-0.12502 c 2.4234,-0.11669 2.61572,-0.0885 2.88992,0.42387 0.25323,0.47316 0.15664,0.68268 -0.70007,1.51862 -1.53526,1.49803 -3.00246,2.41787 -6.50221,4.07643 -4.5496,2.1561 -10.50314,4.24985 -14.58963,5.13091 -2.50787,0.5407 -6.05319,0.56751 -6.4835,0.049 z"
         id="path1903" />
      <path
         style="fill:#cdaa3a;stroke-width:0.264583"
         d="m 182.19854,191.58287 c -2.27757,-0.33946 -0.30542,-0.6408 5.07459,-0.77538 5.42,-0.13559 7.11634,0.005 6.20651,0.51409 -0.5642,0.31574 -9.52347,0.52325 -11.2811,0.26129 z m -33.86666,-3.66425 c -1.79687,-1.3637 -2.64584,-2.30329 -2.64584,-2.92825 0,-0.94087 0.71175,-2.1705 2.10644,-3.63913 2.18034,-2.29591 3.76137,-5.40494 5.1801,-10.18645 0.47035,-1.58521 0.70149,-2.00139 1.14904,-2.06893 0.70353,-0.10617 0.71587,0.39974 0.0311,1.27518 -0.28457,0.3638 -0.52052,0.95911 -0.52432,1.32291 -0.008,0.73455 -1.63273,4.9512 -2.70707,7.02426 -0.3827,0.73847 -1.53377,2.1296 -2.57431,3.1112 -2.90892,2.74413 -2.95083,3.43357 -0.31756,5.22426 1.22241,0.83126 1.8969,1.57806 1.4186,1.57068 -0.10457,-0.002 -0.60685,-0.31919 -1.11617,-0.70573 z m 28.86677,-6.00926 c -0.80428,-0.85612 -0.67635,-2.17038 0.28051,-2.88152 1.1591,-0.86146 2.8673,-0.0965 2.8673,1.28397 0,0.35341 0.0339,0.64256 0.0753,0.64256 0.0414,0 0.75283,-0.23812 1.58089,-0.52917 0.82807,-0.29104 1.87165,-0.52916 2.31908,-0.52916 1.50507,0 2.90388,1.07495 2.90388,2.23156 0,0.65467 -0.61392,0.48491 -1.37241,-0.37948 -0.41105,-0.46844 -0.95704,-0.79375 -1.3322,-0.79375 -0.34964,0 -1.6924,0.35719 -2.98393,0.79375 -2.84346,0.96115 -3.56187,0.98785 -4.33843,0.16124 z m 2.08947,-1.03671 c 0,-0.56801 -0.69014,-1.33645 -1.01819,-1.13371 -0.1676,0.10358 -0.30472,0.47896 -0.30472,0.83417 0,0.51251 0.13655,0.64584 0.66146,0.64584 0.36864,0 0.66145,-0.1533 0.66145,-0.3463 z m 8.58337,1.37941 c -0.4929,-0.79753 1.31056,-2.35602 2.72634,-2.35602 0.70842,0 2.41066,0.4395 3.57311,0.92254 0.36978,0.15366 0.46302,0.0574 0.46302,-0.47816 0,-1.49827 2.01643,-2.14792 3.24114,-1.04422 1.2653,1.14026 -0.073,3.48137 -1.78176,3.11677 -0.43886,-0.0936 -1.01575,-0.217 -1.28197,-0.27412 -0.26623,-0.0571 -1.1339,-0.347 -1.92816,-0.64417 -2.04916,-0.76669 -2.91194,-0.70847 -3.756,0.25344 -0.75446,0.8598 -0.97988,0.95026 -1.25572,0.50394 z m 9.35647,-1.59462 c 0.092,-0.79324 -0.58785,-1.21864 -1.17233,-0.73357 -0.38836,0.32231 -0.48459,1.08564 -0.17579,1.39444 0.4312,0.4312 1.26911,0.0205 1.34812,-0.66087 z m -34.41723,-1.52701 c -5.48415,-1.80992 -8.78102,-8.44631 -7.04611,-14.18335 0.75396,-2.49319 1.5177,-3.71951 3.50487,-5.62769 2.06041,-1.97852 3.7174,-2.57301 6.64745,-2.38497 1.51875,0.0975 2.24155,0.30985 3.72518,1.09457 2.1255,1.12421 3.21708,2.31968 4.58178,5.01783 0.94657,1.87146 0.96115,1.94858 0.96216,5.08898 0.001,3.15533 -0.009,3.20985 -0.99641,5.20689 -2.37134,4.79809 -7.09599,7.20122 -11.37892,5.78774 z m 6.30162,-1.3138 c 6.42299,-3.03863 7.5076,-13.36302 1.9074,-18.15658 -2.41187,-2.06447 -6.46176,-2.60258 -9.26553,-1.23112 -2.77694,1.35834 -4.863,4.39105 -5.50976,8.0101 -0.5637,3.15428 0.53544,6.86733 2.79162,9.43048 1.59035,1.80674 3.69998,2.70319 6.36142,2.70319 1.77918,0 2.37149,-0.12055 3.71485,-0.75607 z m -4.90547,-8.0395 c -1.01699,-0.53446 -1.40346,-1.564 -1.06247,-2.83033 0.34047,-1.26441 1.11567,-1.8704 2.37811,-1.85902 1.46632,0.0132 2.38852,1.01912 2.38852,2.60527 0,1.68812 -2.15283,2.89937 -3.70416,2.08408 z m -10.58334,-3.21424 c 0,-0.0572 0.1786,-0.17252 0.39688,-0.25628 0.21828,-0.0838 0.39687,-0.037 0.39687,0.10398 0,0.14095 -0.17859,0.25628 -0.39687,0.25628 -0.21828,0 -0.39688,-0.0468 -0.39688,-0.10398 z m -13.74269,-7.4178 c -0.57,-0.68681 -0.006,-1.5078 1.93285,-2.81521 1.00708,-0.67897 1.74244,-1.36608 1.7473,-1.63262 0.005,-0.25313 -0.27869,-1.20563 -0.62955,-2.11667 -2.36772,-6.14796 -2.49723,-7.01256 -1.24136,-8.28693 0.75368,-0.76478 1.2135,-0.96958 6.50949,-2.89924 1.45521,-0.53022 3.74996,-1.37114 5.09944,-1.86871 2.69465,-0.99355 4.36762,-1.14077 5.32702,-0.46878 0.62397,0.43704 1.79117,2.74221 2.3917,4.72348 0.17644,0.58208 0.61894,1.78388 0.98334,2.67066 l 0.66255,1.61232 2.59618,-0.12502 c 2.4234,-0.11669 2.61572,-0.0885 2.88992,0.42387 0.25313,0.47297 0.1563,0.68405 -0.70007,1.52612 -2.09107,2.05617 -5.89379,4.03632 -12.43827,6.47687 -5.22533,1.94861 -8.9572,2.89299 -12.11508,3.06582 -2.25201,0.12325 -2.71206,0.0796 -3.01546,-0.28596 z"
         id="path1901" />
      <path
         style="fill:#667391;stroke-width:0.264583"
         d="m 183.52146,191.27312 c 0.98988,-0.31701 7.67291,-0.31701 7.67291,0 0,0.16631 -1.54786,0.25479 -4.16718,0.23821 -2.49921,-0.0158 -3.90243,-0.11117 -3.50573,-0.23821 z m -35.18958,-3.3545 c -1.79687,-1.3637 -2.64584,-2.30329 -2.64584,-2.92825 0,-0.94087 0.71175,-2.1705 2.10644,-3.63913 2.18034,-2.29591 3.76137,-5.40494 5.1801,-10.18645 0.47035,-1.58521 0.70149,-2.00139 1.14904,-2.06893 0.70353,-0.10617 0.71587,0.39974 0.0311,1.27518 -0.28457,0.3638 -0.52052,0.95911 -0.52432,1.32291 -0.008,0.73455 -1.63273,4.9512 -2.70707,7.02426 -0.3827,0.73847 -1.53377,2.1296 -2.57431,3.1112 -2.90892,2.74413 -2.95083,3.43357 -0.31756,5.22426 1.22241,0.83126 1.8969,1.57806 1.4186,1.57068 -0.10457,-0.002 -0.60685,-0.31919 -1.11617,-0.70573 z m 28.86677,-6.00926 c -0.80428,-0.85612 -0.67635,-2.17038 0.28051,-2.88152 1.1591,-0.86146 2.8673,-0.0965 2.8673,1.28397 0,0.35341 0.0339,0.64256 0.0753,0.64256 0.0414,0 0.75283,-0.23812 1.58089,-0.52917 0.82807,-0.29104 1.87165,-0.52916 2.31908,-0.52916 1.50507,0 2.90388,1.07495 2.90388,2.23156 0,0.65467 -0.61392,0.48491 -1.37241,-0.37948 -0.41105,-0.46844 -0.95704,-0.79375 -1.3322,-0.79375 -0.34964,0 -1.6924,0.35719 -2.98393,0.79375 -2.84346,0.96115 -3.56187,0.98785 -4.33843,0.16124 z m 2.08947,-1.03671 c 0,-0.56801 -0.69014,-1.33645 -1.01819,-1.13371 -0.1676,0.10358 -0.30472,0.47896 -0.30472,0.83417 0,0.51251 0.13655,0.64584 0.66146,0.64584 0.36864,0 0.66145,-0.1533 0.66145,-0.3463 z m 8.58337,1.37941 c -0.4929,-0.79753 1.31056,-2.35602 2.72634,-2.35602 0.70842,0 2.41066,0.4395 3.57311,0.92254 0.36978,0.15366 0.46302,0.0574 0.46302,-0.47816 0,-1.49827 2.01643,-2.14792 3.24114,-1.04422 1.2653,1.14026 -0.073,3.48137 -1.78176,3.11677 -0.43886,-0.0936 -1.01575,-0.217 -1.28197,-0.27412 -0.26623,-0.0571 -1.1339,-0.347 -1.92816,-0.64417 -2.04916,-0.76669 -2.91194,-0.70847 -3.756,0.25344 -0.75446,0.8598 -0.97988,0.95026 -1.25572,0.50394 z m 9.35647,-1.59462 c 0.092,-0.79324 -0.58785,-1.21864 -1.17233,-0.73357 -0.38836,0.32231 -0.48459,1.08564 -0.17579,1.39444 0.4312,0.4312 1.26911,0.0205 1.34812,-0.66087 z m -36.06192,-2.34587 c -0.0927,-0.14999 0.0135,-0.19434 0.24897,-0.10399 0.45837,0.17589 0.54223,0.36554 0.16165,0.36554 -0.13693,0 -0.32171,-0.1177 -0.41062,-0.26155 z m 3.04084,-8.53444 c -1.01699,-0.53446 -1.40346,-1.564 -1.06247,-2.83033 0.34047,-1.26441 1.11567,-1.8704 2.37811,-1.85902 1.46632,0.0132 2.38852,1.01912 2.38852,2.60527 0,1.68812 -2.15283,2.89937 -3.70416,2.08408 z m -24.32603,-10.63204 c -0.57,-0.68681 -0.006,-1.5078 1.93285,-2.81521 1.00708,-0.67897 1.74244,-1.36608 1.7473,-1.63262 0.005,-0.25313 -0.27869,-1.20563 -0.62955,-2.11667 -2.36772,-6.14796 -2.49723,-7.01256 -1.24136,-8.28693 0.75368,-0.76478 1.2135,-0.96958 6.50949,-2.89924 1.45521,-0.53022 3.74996,-1.37114 5.09944,-1.86871 2.69465,-0.99355 4.36762,-1.14077 5.32702,-0.46878 0.62397,0.43704 1.79117,2.74221 2.3917,4.72348 0.17644,0.58208 0.61894,1.78388 0.98334,2.67066 l 0.66255,1.61232 2.59618,-0.12502 c 2.4234,-0.11669 2.61572,-0.0885 2.88992,0.42387 0.25313,0.47297 0.1563,0.68405 -0.70007,1.52612 -2.09107,2.05617 -5.89379,4.03632 -12.43827,6.47687 -5.22533,1.94861 -8.9572,2.89299 -12.11508,3.06582 -2.25201,0.12325 -2.71206,0.0796 -3.01546,-0.28596 z m 20.19985,-0.37824 c 0.53924,-0.60624 0.68659,-0.68472 0.68659,-0.36571 0,0.11052 -0.26789,0.36551 -0.59531,0.56665 -0.5932,0.36441 -0.59352,0.36369 -0.0913,-0.20094 z m 8.62409,-0.69894 c -0.3638,-0.20797 -0.54239,-0.37812 -0.39687,-0.37812 0.14552,0 0.56224,0.17015 0.92604,0.37812 0.3638,0.20797 0.54239,0.37813 0.39687,0.37813 -0.14552,0 -0.56224,-0.17016 -0.92604,-0.37813 z m -1.37252,-0.57761 c 0.19099,-0.0764 0.41919,-0.067 0.50711,0.0209 0.0879,0.0879 -0.0684,0.15046 -0.34726,0.13897 -0.30823,-0.0127 -0.37092,-0.0754 -0.15985,-0.15985 z"
         id="path1899" />
      <path
         style="fill:#c06b0d;stroke-width:0.264583"
         d="m 183.52146,191.27312 c 0.98988,-0.31701 7.67291,-0.31701 7.67291,0 0,0.16631 -1.54786,0.25479 -4.16718,0.23821 -2.49921,-0.0158 -3.90243,-0.11117 -3.50573,-0.23821 z m -35.21603,-3.47334 c -3.43015,-2.4382 -3.44534,-2.95099 -0.19656,-6.63773 0.67771,-0.76906 1.71223,-2.29127 2.29894,-3.38268 1.20656,-2.24445 2.95115,-6.88212 2.95115,-7.84507 0,-0.70583 0.67137,-1.1144 1.11016,-0.6756 0.19808,0.19807 0.11485,0.49188 -0.28236,0.99686 -0.30977,0.3938 -0.56345,0.96784 -0.56373,1.27564 -7.6e-4,0.8329 -2.26786,6.42282 -3.1838,7.85019 -0.43799,0.68255 -1.56456,1.96757 -2.50349,2.85559 -0.93892,0.88803 -1.78761,1.93523 -1.88596,2.3271 -0.18822,0.74992 -0.0807,0.87621 2.71454,3.19001 1.31459,1.08815 1.0454,1.11495 -0.45889,0.0457 z m 28.98629,-5.90734 c -1.02587,-1.02587 -0.83479,-2.2793 0.44864,-2.94299 1.05547,-0.54581 2.11084,-0.0493 2.46671,1.16044 0.21134,0.71842 0.35362,0.84404 0.79375,0.70084 3.00722,-0.97839 3.48891,-1.03567 4.57838,-0.54439 1.0594,0.47773 1.86992,1.6287 1.44568,2.05294 -0.12505,0.12505 -0.56666,-0.12941 -0.98821,-0.56942 -0.97825,-1.02107 -1.76526,-1.02225 -4.64459,-0.007 -2.72732,0.96168 -3.26847,0.98142 -4.10036,0.14953 z m 1.87341,-0.68853 c 0.30468,-0.49298 -0.12631,-1.61435 -0.5857,-1.52389 -0.69086,0.13603 -1.03809,0.89592 -0.63263,1.38446 0.39978,0.4817 0.96669,0.54659 1.21833,0.13943 z m 8.85424,0.69571 c 0,-0.70761 1.0141,-1.65141 2.05515,-1.9127 0.35544,-0.0892 1.37789,0.0463 2.27211,0.30117 0.89423,0.25485 1.84778,0.52645 2.11901,0.60356 0.40405,0.11486 0.46075,0.0381 0.31386,-0.4247 -0.24404,-0.76889 1.01909,-1.976 1.8158,-1.73528 0.81274,0.24558 1.74282,1.18324 1.74282,1.75705 0,0.7667 -0.49619,1.52454 -1.16456,1.77866 -0.59128,0.2248 -3.84696,-0.4737 -4.94373,-1.06067 -0.25933,-0.13879 -0.90679,-0.25234 -1.43881,-0.25234 -0.74362,0 -1.12837,0.18355 -1.66381,0.79375 -0.84384,0.96166 -1.10784,0.99776 -1.10784,0.1515 z m 9.24086,-0.9087 c 0.34466,-0.64401 -0.22175,-1.45316 -0.92397,-1.31992 -0.35766,0.0679 -0.53664,0.35527 -0.59459,0.95481 -0.0737,0.76293 -0.009,0.85773 0.58601,0.85773 0.38158,0 0.78216,-0.21161 0.93255,-0.49262 z m -36.09419,-2.67935 c -0.0927,-0.14999 0.0135,-0.19434 0.24897,-0.10399 0.45837,0.17589 0.54223,0.36554 0.16165,0.36554 -0.13693,0 -0.32171,-0.1177 -0.41062,-0.26155 z m 3.02542,-8.59445 c -0.95545,-0.51967 -1.3152,-1.4461 -1.03831,-2.67381 0.28187,-1.24976 1.14745,-1.95033 2.41927,-1.95806 0.76084,-0.005 1.11563,0.16877 1.65364,0.80817 1.13356,1.34715 0.85175,3.04581 -0.63264,3.81342 -0.94424,0.48828 -1.51859,0.49074 -2.40196,0.0103 z M 139.9975,159.17077 c -0.5287,-0.39976 -0.52869,-0.40075 0.0123,-1.12655 0.29779,-0.39954 1.22888,-1.2125 2.0691,-1.80658 1.38075,-0.97627 1.55258,-1.03562 1.78681,-0.61712 0.14254,0.25466 0.46692,0.46302 0.72085,0.46302 0.25392,0 3.73059,-1.19979 7.72591,-2.66619 3.99533,-1.46641 7.97353,-2.92492 8.84046,-3.24115 1.23756,-0.45142 1.6092,-0.71708 1.72969,-1.23641 0.13688,-0.58997 0.34169,-0.68695 1.89498,-0.89725 3.14299,-0.42553 4.10411,0.27039 2.57316,1.86315 -2.49505,2.59576 -12.07045,6.8115 -19.99706,8.80405 -1.19286,0.29985 -2.44302,0.53508 -2.77813,0.52274 -0.33511,-0.0123 -1.3832,0.0587 -2.32908,0.15797 -1.33734,0.1403 -1.83747,0.0915 -2.24896,-0.21968 z m 20.0832,-0.40392 c 0.53924,-0.60624 0.68659,-0.68472 0.68659,-0.36571 0,0.11052 -0.26789,0.36551 -0.59531,0.56665 -0.5932,0.36441 -0.59352,0.36369 -0.0913,-0.20094 z m 8.62409,-0.69894 c -0.3638,-0.20797 -0.54239,-0.37812 -0.39687,-0.37812 0.14552,0 0.56224,0.17015 0.92604,0.37812 0.3638,0.20797 0.54239,0.37813 0.39687,0.37813 -0.14552,0 -0.56224,-0.17016 -0.92604,-0.37813 z m -1.37252,-0.57761 c 0.19099,-0.0764 0.41919,-0.067 0.50711,0.0209 0.0879,0.0879 -0.0684,0.15046 -0.34726,0.13897 -0.30823,-0.0127 -0.37092,-0.0754 -0.15985,-0.15985 z m -23.6345,-3.06041 c -0.0658,-0.1819 -0.28932,-0.80698 -0.49678,-1.38906 -0.20747,-0.58209 -0.80476,-2.2409 -1.32733,-3.68627 -1.09095,-3.01745 -1.13117,-3.42192 -0.4512,-4.53699 0.67608,-1.10868 0.93204,-1.22261 10.349,-4.60617 1.52797,-0.54901 3.1133,-1.13143 3.52295,-1.29428 2.38921,-0.94976 3.69918,-0.0183 5.07332,3.60729 0.53758,1.4184 1.22706,3.20534 1.53217,3.97097 0.34561,0.86727 0.46112,1.48559 0.30638,1.64016 -0.27942,0.27913 -17.59704,6.62508 -18.07935,6.62508 -0.17027,0 -0.36339,-0.14883 -0.42916,-0.33073 z"
         id="path1897" />
      <path
         style="fill:#545557;stroke-width:0.264583"
         d="m 148.30543,187.79978 c -3.43015,-2.4382 -3.44534,-2.95099 -0.19656,-6.63773 0.67771,-0.76906 1.71223,-2.29127 2.29894,-3.38268 1.20656,-2.24445 2.95115,-6.88212 2.95115,-7.84507 0,-0.70583 0.67137,-1.1144 1.11016,-0.6756 0.19808,0.19807 0.11485,0.49188 -0.28236,0.99686 -0.30977,0.3938 -0.56345,0.96784 -0.56373,1.27564 -7.6e-4,0.8329 -2.26786,6.42282 -3.1838,7.85019 -0.43799,0.68255 -1.56456,1.96757 -2.50349,2.85559 -0.93892,0.88803 -1.78761,1.93523 -1.88596,2.3271 -0.18822,0.74992 -0.0807,0.87621 2.71454,3.19001 1.31459,1.08815 1.0454,1.11495 -0.45889,0.0457 z m 28.98629,-5.90734 c -1.02587,-1.02587 -0.83479,-2.2793 0.44864,-2.94299 1.05547,-0.54581 2.11084,-0.0493 2.46671,1.16044 0.21134,0.71842 0.35362,0.84404 0.79375,0.70084 3.00722,-0.97839 3.48891,-1.03567 4.57838,-0.54439 1.0594,0.47773 1.86992,1.6287 1.44568,2.05294 -0.12505,0.12505 -0.56666,-0.12941 -0.98821,-0.56942 -0.97825,-1.02107 -1.76526,-1.02225 -4.64459,-0.007 -2.72732,0.96168 -3.26847,0.98142 -4.10036,0.14953 z m 1.87341,-0.68853 c 0.30468,-0.49298 -0.12631,-1.61435 -0.5857,-1.52389 -0.69086,0.13603 -1.03809,0.89592 -0.63263,1.38446 0.39978,0.4817 0.96669,0.54659 1.21833,0.13943 z m 8.85424,0.69571 c 0,-0.70761 1.0141,-1.65141 2.05515,-1.9127 0.35544,-0.0892 1.37789,0.0463 2.27211,0.30117 0.89423,0.25485 1.84778,0.52645 2.11901,0.60356 0.40405,0.11486 0.46075,0.0381 0.31386,-0.4247 -0.24404,-0.76889 1.01909,-1.976 1.8158,-1.73528 0.81274,0.24558 1.74282,1.18324 1.74282,1.75705 0,0.7667 -0.49619,1.52454 -1.16456,1.77866 -0.59128,0.2248 -3.84696,-0.4737 -4.94373,-1.06067 -0.25933,-0.13879 -0.90679,-0.25234 -1.43881,-0.25234 -0.74362,0 -1.12837,0.18355 -1.66381,0.79375 -0.84384,0.96166 -1.10784,0.99776 -1.10784,0.1515 z m 9.24086,-0.9087 c 0.34466,-0.64401 -0.22175,-1.45316 -0.92397,-1.31992 -0.35766,0.0679 -0.53664,0.35527 -0.59459,0.95481 -0.0737,0.76293 -0.009,0.85773 0.58601,0.85773 0.38158,0 0.78216,-0.21161 0.93255,-0.49262 z m -33.06877,-11.2738 c -0.95545,-0.51967 -1.3152,-1.4461 -1.03831,-2.67381 0.28187,-1.24976 1.14745,-1.95033 2.41927,-1.95806 0.76084,-0.005 1.11563,0.16877 1.65364,0.80817 1.13356,1.34715 0.85175,3.04581 -0.63264,3.81342 -0.94424,0.48828 -1.51859,0.49074 -2.40196,0.0103 z M 139.9975,159.17077 c -0.5287,-0.39976 -0.52869,-0.40075 0.0123,-1.12655 0.29779,-0.39954 1.22888,-1.2125 2.0691,-1.80658 1.38075,-0.97627 1.55258,-1.03562 1.78681,-0.61712 0.14254,0.25466 0.46692,0.46302 0.72085,0.46302 0.25392,0 3.73059,-1.19979 7.72591,-2.66619 3.99533,-1.46641 7.97353,-2.92492 8.84046,-3.24115 1.23756,-0.45142 1.6092,-0.71708 1.72969,-1.23641 0.13688,-0.58997 0.34169,-0.68695 1.89498,-0.89725 3.14299,-0.42553 4.10411,0.27039 2.57316,1.86315 -2.49505,2.59576 -12.07045,6.8115 -19.99706,8.80405 -1.19286,0.29985 -2.44302,0.53508 -2.77813,0.52274 -0.33511,-0.0123 -1.3832,0.0587 -2.32908,0.15797 -1.33734,0.1403 -1.83747,0.0915 -2.24896,-0.21968 z m 3.70027,-4.74088 c -0.0658,-0.1819 -0.28932,-0.80698 -0.49678,-1.38906 -0.20747,-0.58209 -0.80476,-2.2409 -1.32733,-3.68627 -1.09095,-3.01745 -1.13117,-3.42192 -0.4512,-4.53699 0.67608,-1.10868 0.93204,-1.22261 10.349,-4.60617 1.52797,-0.54901 3.1133,-1.13143 3.52295,-1.29428 2.38921,-0.94976 3.69918,-0.0183 5.07332,3.60729 0.53758,1.4184 1.22706,3.20534 1.53217,3.97097 0.34561,0.86727 0.46112,1.48559 0.30638,1.64016 -0.27942,0.27913 -17.59704,6.62508 -18.07935,6.62508 -0.17027,0 -0.36339,-0.14883 -0.42916,-0.33073 z"
         id="path1895" />
      <path
         style="fill:#363637;stroke-width:0.264583"
         d="m 147.65712,181.85182 c 0.66108,-0.67057 1.72663,-2.06955 2.36788,-3.10885 1.11405,-1.8056 1.54248,-2.72462 2.79269,-5.99068 0.50267,-1.31317 0.54162,-1.35532 0.39903,-0.43188 -0.0869,0.56283 -0.44764,1.65653 -0.80163,2.43044 -0.354,0.77391 -0.64363,1.54354 -0.64363,1.71028 0,1.05684 -4.28228,6.60991 -5.09727,6.60991 -0.12047,0 0.32185,-0.54865 0.98293,-1.21922 z m 30.26859,0.36877 c -0.405,-0.13532 -0.84042,-0.57091 -1.03127,-1.03165 -0.28888,-0.69743 -0.26406,-0.88657 0.19795,-1.50819 0.58689,-0.78964 1.9763,-1.08995 2.60989,-0.56412 0.20878,0.17327 0.37959,0.6378 0.37959,1.03229 0,0.39449 0.0725,0.78977 0.16116,0.87841 0.0886,0.0886 0.77324,-0.0808 1.52135,-0.37644 2.51156,-0.99263 4.91761,-0.49841 5.14892,1.05763 0.1118,0.75209 -0.24796,0.71909 -1.01059,-0.0927 -0.77957,-0.82981 -2.09013,-0.87278 -3.97387,-0.13027 -1.95885,0.7721 -3.20657,1.0012 -4.00313,0.73503 z m 1.52338,-1.11325 c 0.0794,-0.20691 0.008,-0.63086 -0.15849,-0.9421 -0.593,-1.10803 -1.9462,-0.25623 -1.48836,0.93688 0.18896,0.49243 1.45835,0.49645 1.64685,0.005 z m 8.57028,0.76044 c 0,-0.56851 1.19618,-1.62124 2.0214,-1.77899 0.75889,-0.14508 3.08152,0.33217 3.98048,0.8179 0.8125,0.43901 0.87729,0.40648 0.87729,-0.44048 0,-1.05452 0.80971,-1.72516 1.81603,-1.50413 0.43628,0.0958 0.93541,0.34553 1.10918,0.5549 0.46754,0.56335 0.3836,1.64475 -0.17564,2.26269 -0.42582,0.47053 -0.68223,0.51937 -1.91688,0.36511 -0.78392,-0.0979 -1.95668,-0.40585 -2.60614,-0.68425 -1.70799,-0.73212 -3.27,-0.67219 -4.04738,0.1553 -0.71207,0.75796 -1.05834,0.8404 -1.05834,0.25195 z m 9.525,-1.31028 c 0,-1.22706 -1.63912,-1.48905 -1.95468,-0.31243 -0.26065,0.97186 -0.18536,1.19779 0.43333,1.30025 0.88827,0.14709 1.52135,-0.26397 1.52135,-0.98782 z m -43.98739,-10.5739 c 0.0705,-0.36899 0.29297,-0.6709 0.49428,-0.6709 0.50907,0 0.45673,0.36508 -0.12825,0.89447 -0.47159,0.42679 -0.48839,0.41653 -0.36603,-0.22357 z m 11.17906,-0.064 c -0.99409,-0.3634 -1.58748,-1.2302 -1.57908,-2.30666 0.009,-1.16754 0.32856,-1.74515 1.23096,-2.22577 1.98052,-1.05483 4.11398,1.01409 3.28746,3.18801 -0.40523,1.06582 -1.86942,1.73553 -2.93934,1.34442 z m -24.05746,-10.91886 c -0.35302,-0.0845 -0.68596,-0.286 -0.73987,-0.44774 -0.11233,-0.33701 1.40945,-1.65818 2.72768,-2.36809 0.86597,-0.46636 0.90382,-0.46595 1.25437,0.0135 0.30366,0.41528 0.48426,0.44961 1.12951,0.21471 0.42244,-0.15378 1.89916,-0.69237 3.28161,-1.19687 1.38244,-0.5045 5.19066,-1.8936 8.4627,-3.08689 3.27204,-1.19328 6.09977,-2.29461 6.28385,-2.44738 0.18408,-0.15277 0.3347,-0.48745 0.3347,-0.74372 0,-0.37768 0.32232,-0.50046 1.70149,-0.64816 1.63909,-0.17553 2.79642,0.0842 2.79642,0.62764 0,0.12313 -0.41944,0.5438 -0.9321,0.93482 -0.51266,0.39103 -1.21348,0.99233 -1.55738,1.33622 -2.41923,2.41924 -18.33996,8.26793 -20.87881,7.67011 -0.31707,-0.0747 -1.17181,-0.0387 -1.89942,0.0799 -0.7276,0.11862 -1.61174,0.14651 -1.96475,0.062 z m 2.88139,-5.71726 c -0.28587,-0.66691 -0.51976,-1.3829 -0.51976,-1.59109 0,-0.2082 -0.11269,-0.58528 -0.25042,-0.83796 -0.45448,-0.8338 -1.60166,-3.9815 -1.60166,-4.39472 0,-0.58977 0.59153,-1.83291 1.0551,-2.21736 0.5084,-0.42162 1.69158,-0.95177 3.04594,-1.36479 1.0313,-0.31451 1.25845,-0.39857 2.91041,-1.07706 0.43657,-0.1793 1.4486,-0.53975 2.24896,-0.801 0.80037,-0.26124 2.40499,-0.84374 3.56584,-1.29443 1.16085,-0.4507 2.4593,-0.81945 2.88544,-0.81945 1.14792,0 2.3833,1.07306 2.78864,2.42222 0.18997,0.63231 0.44154,1.38778 0.55906,1.67882 1.06452,2.6365 1.7519,4.801 1.58224,4.98234 -0.19722,0.21079 -0.90953,0.48783 -6.22184,2.4199 -1.30969,0.47632 -4.38377,1.59529 -6.83129,2.48659 -2.44752,0.8913 -4.50558,1.62055 -4.57346,1.62055 -0.0679,0 -0.35733,-0.54566 -0.6432,-1.21256 z"
         id="path1893" />
    </g>
  </g>
</svg>
